<?xml version="1.0" encoding="utf-8"?>
<!-- Generator: Adobe Illustrator 27.5.0, SVG Export Plug-In . SVG Version: 6.00 Build 0)  -->
<svg version="1.1" xmlns="http://www.w3.org/2000/svg" xmlns:xlink="http://www.w3.org/1999/xlink" x="0px" y="0px"
	 viewBox="0 0 500 500.001" style="enable-background:new 0 0 500 500.001;" xml:space="preserve">
<g id="BACKGROUND">
	<rect style="fill:#FBE9D5;" width="500" height="500.001"/>
</g>
<g id="OBJECTS">
	<g>
		<path style="fill:#E1AB89;" d="M198.617,245.374c0,0-5.063,51.422-10.969,65.768c-5.906,14.343-13.218,27.562-13.218,27.562
			s47.196,44.437,80.41,39.095c33.214-5.346,61.619-83.531,61.619-83.531s-11.81-13.219-13.218-28.97
			c-1.406-15.751-1.125-19.923-1.125-19.923s-17.437,28.642-41.624,28.924C236.304,274.579,224.21,273.546,198.617,245.374z"/>
		<path style="fill:#C6C3A2;" d="M317.345,285.171c13.37,20.907,38.825,21.857,60.377,27.385
			c22.896,5.871,39.978,19.958,56.394,36.367c13.261,13.257,17.813,32.391,23.3,50.389c3.775,12.379,5.998,24.295,7.605,37.077
			c0.969,7.709,4.637,56.418,7.1,63.612H27.879c2.466-7.194,1.976-16.311,2.946-24.018c1.608-12.783,3.829-24.697,7.604-37.078
			c5.488-17.997,10.041-37.133,23.302-50.39c16.414-16.409,33.498-30.493,56.392-36.366c21.551-5.526,47.008-6.478,60.378-27.383
			L317.345,285.171z"/>
		<path style="fill:#E1AB89;" d="M253.126,44.669c0,0,48.072-3.542,62.317,25.999c14.245,29.541,17.608,61.127,20.403,75.482
			c2.796,14.354-7.358,40.784-9.206,55.041c-1.847,14.258-9.561,27.774-23.79,41.754c-14.228,13.982-29.835,29.901-52.22,29.105
			v0.002c-22.397,0.347-37.652-15.879-51.571-30.14c-13.918-14.261-21.335-27.929-22.87-42.22
			c-1.533-14.291-11.106-40.917-7.995-55.212c3.11-14.295,7.165-45.808,22.057-75.058C205.141,40.17,253.126,44.669,253.126,44.669z
			"/>
		<path style="fill:#BF613D;" d="M221.839,213.99c0,0,7.481-7.582,16.781-11.829c7.583-3.462,12.335-3.942,14.963-2.021
			c1.065,0.778,3.14,1.988,4.045,2.124c2.021,0.302,4.852-1.921,7.985-1.82c2.559,0.083,14.458,3.438,22.444,17.692
			c0,0-5.158,7.683-13.952,10.413c-8.795,2.729-20.891,1.745-29.621,0C234.881,226.629,221.839,213.99,221.839,213.99z"/>
		<path style="fill:#9E5133;" d="M277.411,216.384c-4.605-1.096-9.21-2.411-13.815-2.851c-4.604-0.438-8.991,0-13.377-0.219
			c-6.578-0.219-12.938,0.658-19.296,0.658c-2.997,0.13-5.999,0.035-9.042-0.023c-0.014,0.013-0.042,0.041-0.042,0.041
			s13.042,12.639,22.646,14.558c8.73,1.745,20.826,2.729,29.621,0c7.729-2.399,12.645-8.621,13.724-10.093
			C284.334,217.659,280.775,217.117,277.411,216.384z"/>
		<path style="fill:#281F18;" d="M224.973,214.092c0,0,6.066-0.505,16.277-2.831c10.21-2.326,14.152-2.931,20.421-1.213
			c6.269,1.72,14.457,5.662,19.512,7.381c0,0-11.929-1.617-18.804-1.213c-6.875,0.404-13.973-0.946-21.736-1.581
			C232.757,213.99,224.973,214.092,224.973,214.092z"/>
		<path style="fill:#E1AB89;" d="M333.085,155.504c0,0,7.429-6.604,10.4-3.962c2.971,2.642-2.146,12.381-3.962,18.489
			c-1.816,6.108-4.954,14.527-5.448,19.149c-0.494,4.623-2.956,17.292-5.943,18.324c-2.986,1.032-5.116-2.641-5.116-2.641
			L333.085,155.504z"/>
		<path style="fill:#E6B773;" d="M328.958,204.202c0,0-0.165-5.448,2.642-6.768c0,0,17.499,2.311,19.975,18.819
			c2.477,16.507-7.929,30.208-22.618,29.053c-14.689-1.156-18.554-10.457-18.554-10.457l3.667-4.602c0,0,8.915,8.291,17.102,2.183
			C339.358,226.322,342.165,210.309,328.958,204.202z"/>
		<path style="fill:#E1AB89;" d="M177.747,196.113c0,0-10.564,5.283-15.846-2.806c-5.283-8.089-7.43-23.937-9.575-30.375
			c-2.145-6.438-5.118-21.79,1.485-23.771c6.604-1.981,8.665,8.658,9.945,11.757c1.281,3.099,5.078,1.613,5.078,1.613
			L177.747,196.113z"/>
		<path style="fill:#E6B773;" d="M169.824,194.957c1.327-1.238-3.302-6.273-8.089-5.447c-4.788,0.825-15.682,15.228-14.031,27.919
			c1.651,12.691,20.126,30.131,36.806,6.059c0,0-4.179-7.888-5.02-10.243c0,0-7.173,8.16-11.151,8.16
			C166.021,221.405,160.083,204.036,169.824,194.957z"/>
		<path style="fill:#281F18;" d="M243.67,107.921c-0.026-0.077-0.07-0.149-0.142-0.212c-1.227-1.852-2.782-3.523-4.321-4.998
			c-0.04-0.037-0.096,0.02-0.06,0.06c1.066,1.151,1.992,2.32,2.806,3.543c-0.452-0.453-0.933-0.868-1.448-1.24
			c-1.852-1.706-3.988-3.172-5.866-4.673c-0.042-0.033-0.1,0.023-0.06,0.06c1.441,1.28,2.989,2.423,4.408,3.724
			c-0.204-0.094-0.413-0.183-0.628-0.261c-1.393-1.125-2.821-2.169-4.128-3.16c-0.113-0.086-0.262,0.107-0.151,0.197
			c1.303,1.062,2.578,2.15,3.829,3.271c-0.048,0.052-0.062,0.142,0.016,0.193c0.01,0.007,0.021,0.016,0.031,0.023
			c-0.436-0.155-0.877-0.296-1.324-0.424c-1.066-0.643-2.085-1.246-2.951-1.831c-0.119-0.079-0.265,0.11-0.153,0.198
			c0.558,0.433,1.128,0.849,1.696,1.269c-0.303-0.069-0.605-0.137-0.91-0.197c-1.478-1.013-3.018-1.919-4.575-2.682
			c-0.191-0.094-0.36,0.188-0.168,0.289c0.784,0.411,1.531,0.858,2.262,1.321c-0.633-0.298-1.263-0.579-1.882-0.841
			c-0.049-0.021-0.091,0.046-0.042,0.072c0.911,0.476,1.775,1,2.623,1.543c-0.291-0.041-0.582-0.086-0.87-0.12
			c-0.093-0.011-0.114,0.148-0.022,0.165c0.488,0.09,0.966,0.194,1.437,0.31c0.322,0.215,0.642,0.433,0.956,0.657
			c-0.663-0.093-1.328-0.164-1.994-0.218c-1.801-0.763-3.686-1.312-5.627-1.512c-0.016-0.011-0.034-0.022-0.05-0.034
			c-0.136-0.093-0.254,0.123-0.126,0.217c0.475,0.353,0.926,0.723,1.388,1.085c-0.07-0.009-0.141-0.015-0.21-0.024
			c-0.665-0.342-1.317-0.697-1.943-1.074c-0.235-0.141-0.434,0.212-0.212,0.362c0.289,0.195,0.584,0.377,0.878,0.565
			c-0.614-0.065-1.229-0.119-1.843-0.165c-0.716-0.381-1.422-0.779-2.09-1.238c-0.064-0.043-0.127,0.063-0.061,0.103
			c0.592,0.362,1.172,0.735,1.757,1.104c-0.27-0.019-0.54-0.033-0.81-0.048c-0.464-0.23-0.929-0.46-1.392-0.703
			c-0.048-0.025-0.089,0.046-0.042,0.072c0.394,0.219,0.796,0.418,1.198,0.619c-0.402-0.021-0.807-0.046-1.21-0.061
			c-0.09-0.003-0.132,0.054-0.148,0.119c-0.836-0.291-1.658-0.582-2.444-0.88c-0.057-0.021-0.073,0.042-0.049,0.083
			c-1.026-0.308-2.03-0.588-2.983-0.836c-0.052-0.014-0.074,0.064-0.022,0.08c1.43,0.441,2.835,0.952,4.22,1.512
			c-0.684-0.072-1.371-0.14-2.058-0.186c-1.071-0.467-2.13-0.932-3.133-1.419c-0.144-0.07-0.271,0.141-0.125,0.216
			c0.23,0.12,0.456,0.238,0.685,0.356c0.004,0.009-0.005,0.02,0.008,0.026c0.109,0.051,0.22,0.099,0.331,0.15
			c0.398,0.206,0.793,0.415,1.189,0.62c-0.298-0.015-0.593-0.032-0.889-0.042c-0.775-0.328-1.54-0.653-2.278-0.978
			c-0.193-0.086-0.365,0.193-0.167,0.29c0.442,0.217,0.883,0.439,1.325,0.658c-0.089-0.001-0.178-0.001-0.268-0.003
			c-0.894-0.454-1.785-0.922-2.658-1.442c-0.046-0.028-0.086,0.043-0.041,0.072c0.7,0.476,1.415,0.925,2.136,1.365
			c-0.63-0.005-1.256-0.004-1.882,0.006c-0.449-0.122-0.898-0.243-1.344-0.358c-0.21-0.054-0.294,0.256-0.089,0.323
			c0.059,0.02,0.119,0.041,0.177,0.061c-0.084,0.002-0.171,0.002-0.256,0.005c-1.036-0.308-2.087-0.568-3.178-0.709
			c-0.046-0.006-0.057,0.074-0.01,0.082c0.997,0.179,1.94,0.457,2.862,0.776c-0.005,0.036,0.002,0.067,0.017,0.1
			c-0.542-0.172-1.087-0.342-1.636-0.502c-0.105-0.031-0.143,0.124-0.044,0.162c0.342,0.128,0.677,0.269,1.016,0.403
			c-0.506,0.022-1.011,0.049-1.512,0.08c-1.328-0.371-2.659-0.706-3.982-0.99c-0.051-0.011-0.075,0.066-0.021,0.081
			c1.033,0.288,2.034,0.622,3.023,0.975c-0.151,0.011-0.303,0.025-0.454,0.038c-0.017-0.006-0.033-0.012-0.049-0.019
			c-0.047-0.019-0.084,0.002-0.112,0.032c-0.665,0.055-1.325,0.115-1.976,0.183c-1.466-0.339-2.969-0.627-4.538-0.85
			c-0.052-0.007-0.077,0.07-0.023,0.08c2.022,0.393,3.929,0.911,5.78,1.518c-0.607,0.063-1.217,0.13-1.824,0.206
			c-1.484-0.082-2.981-0.109-4.494-0.087c-0.108,0.002-0.108,0.162,0,0.167c0.828,0.043,1.651,0.109,2.47,0.187
			c-1.052,0.154-2.108,0.323-3.167,0.506c-0.032,0.006-0.037,0.033-0.035,0.058c-0.233,0.023-0.467,0.031-0.698,0.058
			c-0.053,0.007-0.056,0.085,0,0.084c1.036-0.01,2.056,0.034,3.07,0.103c-0.718,0.199-1.427,0.423-2.128,0.675
			c-0.076,0.009-0.151,0.012-0.228,0.021c-1.731,0.208-3.521,0.267-4.995,1.289c-0.087,0.061-0.009,0.201,0.085,0.144
			c1.075-0.641,2.435-0.857,3.812-0.936c-0.803,0.336-1.592,0.704-2.359,1.123c-0.026,0.005-0.054,0.008-0.079,0.014
			c-0.021,0.004-0.017,0.023-0.023,0.038c-0.303,0.168-0.598,0.355-0.896,0.536c-0.996,0.514-1.943,1.076-2.827,1.69
			c-1.456,0.764-2.864,1.667-4.221,2.741c-0.075,0.059,0.023,0.183,0.102,0.131c0.664-0.432,1.343-0.835,2.034-1.212
			c-0.377,0.345-0.751,0.692-1.093,1.063c-0.184,0.2,0.095,0.476,0.296,0.297c0.962-0.858,2.019-1.626,3.149-2.316
			c-0.433,0.363-0.842,0.747-1.226,1.159c-1.426,0.849-2.779,1.825-4.007,2.994c-0.119,0.113,0.057,0.285,0.177,0.178
			c1.943-1.737,4.113-2.971,6.408-3.949c0.035,0.03,0.081,0.048,0.14,0.036c0.55-0.115,1.096-0.206,1.642-0.303
			c-1.311,0.415-2.597,0.909-3.842,1.506c-0.05,0.024-0.006,0.092,0.042,0.072c7.287-3.076,16.099-2.94,23.86-2.261
			c0.008,0,0.01-0.007,0.019-0.007c0.369,0.063,0.733,0.126,1.103,0.188c0.131,0.022,0.225-0.027,0.297-0.097
			c0.271,0.031,0.542,0.062,0.811,0.099c7.076,1.656,14.369,1.772,21.651,1.851c0.433,0.028,0.863,0.062,1.297,0.085
			c0.203,0.011,0.378-0.017,0.537-0.065c0.386,0.005,0.77,0.009,1.154,0.015c0.156,0.066,0.326,0.063,0.477,0.006
			c0.644,0.009,1.287,0.021,1.929,0.034c0.234,0.005,0.383-0.116,0.46-0.275c0.158,0.377,0.735,0.222,0.635-0.193
			C245.188,110.627,244.512,109.231,243.67,107.921z M225.862,104.119c0.575,0.101,1.147,0.206,1.717,0.324
			c0.086,0.052,0.172,0.103,0.258,0.155c-0.378-0.041-0.762-0.071-1.145-0.103c-0.169-0.046-0.335-0.099-0.503-0.142
			c-0.162-0.08-0.321-0.162-0.483-0.243C225.758,104.113,225.811,104.116,225.862,104.119z M237.482,106.924
			c0.014,0.015,0.03,0.028,0.044,0.042c-0.026-0.017-0.051-0.036-0.077-0.052c0,0,0.001,0,0.002-0.001
			C237.461,106.918,237.473,106.921,237.482,106.924z M214.093,104.086c-0.098,0.004-0.192,0.005-0.291,0.009
			c-0.179-0.079-0.363-0.146-0.542-0.222c0.11,0.008,0.222,0.009,0.333,0.018C213.76,103.953,213.927,104.02,214.093,104.086z
			 M239.883,107.348c0.001-0.006,0.001-0.012,0.001-0.018c0.042,0.04,0.082,0.081,0.122,0.122
			C239.964,107.418,239.925,107.382,239.883,107.348z M238.997,106.531c0.03,0.024,0.056,0.05,0.086,0.074
			c-0.106-0.041-0.212-0.081-0.316-0.122c-0.038-0.027-0.075-0.054-0.111-0.08C238.77,106.447,238.884,106.486,238.997,106.531z
			 M212.23,103.819c0.006,0.003,0.013,0.006,0.02,0.009c-0.009-0.003-0.02-0.006-0.029-0.009
			C212.224,103.819,212.227,103.819,212.23,103.819z M197.667,109.888c0.842-0.176,1.699-0.307,2.562-0.4
			c-1.25,0.242-2.501,0.519-3.758,0.832C196.867,110.164,197.265,110.019,197.667,109.888z M239.846,104.998
			c0.017,0.017,0.036,0.032,0.052,0.049c0.116,0.121,0.221,0.248,0.333,0.372c-0.079-0.041-0.163-0.075-0.242-0.115
			c-0.288-0.256-0.579-0.509-0.873-0.757C239.372,104.685,239.612,104.838,239.846,104.998z M236.496,104.613
			c0.016,0.012,0.032,0.025,0.049,0.038c-0.27-0.063-0.535-0.14-0.808-0.194c-0.055-0.033-0.112-0.061-0.167-0.094
			c-0.071-0.053-0.138-0.11-0.21-0.163C235.742,104.33,236.121,104.468,236.496,104.613z M230.261,103.855
			c-0.609-0.022-1.214-0.035-1.816-0.036c-0.609-0.409-1.21-0.813-1.796-1.213C227.905,102.894,229.105,103.321,230.261,103.855z
			 M224.881,103.963c0.016,0.01,0.034,0.021,0.05,0.031c0.002,0.037,0.024,0.075,0.075,0.076c0.018,0,0.034,0.003,0.051,0.003
			c0.011,0.007,0.023,0.014,0.034,0.021c-0.218-0.049-0.439-0.092-0.658-0.137c-0.063-0.03-0.125-0.06-0.186-0.09
			C224.459,103.897,224.671,103.93,224.881,103.963z M224.1,103.887c-0.205-0.04-0.407-0.091-0.613-0.128
			c0.161,0.021,0.319,0.043,0.478,0.065C224.01,103.845,224.054,103.866,224.1,103.887z M210.956,103.754
			c0.27,0.113,0.536,0.235,0.805,0.352c-0.341,0.006-0.682,0.01-1.024,0.022c-0.413-0.135-0.826-0.272-1.241-0.397
			C209.983,103.736,210.469,103.738,210.956,103.754z M208.062,103.722c0.423,0.158,0.849,0.312,1.266,0.48
			c-0.163,0.009-0.326,0.016-0.489,0.026c-0.455-0.163-0.903-0.334-1.347-0.506C207.682,103.719,207.872,103.724,208.062,103.722z
			 M205.232,103.804c0.538-0.026,1.074-0.045,1.612-0.059c0.376,0.182,0.751,0.358,1.126,0.535
			c-0.235,0.019-0.473,0.047-0.708,0.067C206.593,104.155,205.919,103.969,205.232,103.804z M206.582,104.646
			c0.049,0.017,0.095,0.032,0.144,0.048c-0.265,0.033-0.533,0.062-0.796,0.1c-0.293-0.026-0.586-0.042-0.879-0.063
			C205.56,104.689,206.072,104.674,206.582,104.646z M199.792,105.437c0.96-0.176,1.922-0.327,2.887-0.448
			c0.424,0.044,0.848,0.084,1.271,0.136c-0.297,0.058-0.589,0.13-0.882,0.195C201.974,105.306,200.882,105.354,199.792,105.437z"/>
		<path style="fill:#281F18;" d="M272.916,114.294c-0.136,0.402,0.383,0.617,0.567,0.26c0.056,0.166,0.181,0.303,0.398,0.322
			c0.596,0.055,1.191,0.113,1.788,0.172c0.133,0.073,0.291,0.094,0.441,0.045c0.357,0.036,0.713,0.072,1.07,0.108
			c0.142,0.065,0.301,0.111,0.489,0.122c0.404,0.022,0.808,0.035,1.211,0.054c6.747,0.697,13.508,1.359,20.225,0.467
			c0.253-0.008,0.505-0.01,0.759-0.012c0.06,0.078,0.143,0.136,0.267,0.128c0.348-0.022,0.691-0.046,1.04-0.069
			c0.007,0.001,0.009,0.008,0.017,0.008c7.251,0.152,15.421,0.956,21.855,4.791c0.043,0.026,0.091-0.038,0.047-0.067
			c-1.093-0.727-2.232-1.354-3.404-1.907c0.496,0.155,0.991,0.304,1.489,0.477c0.051,0.019,0.098,0.005,0.133-0.021
			c2.025,1.217,3.909,2.675,5.532,4.609c0.101,0.12,0.281-0.033,0.184-0.158c-1.021-1.293-2.175-2.407-3.409-3.404
			c-0.311-0.45-0.653-0.876-1.018-1.282c0.978,0.807,1.878,1.683,2.682,2.638c0.169,0.2,0.455-0.046,0.305-0.264
			c-0.279-0.405-0.59-0.79-0.905-1.173c0.602,0.449,1.189,0.922,1.761,1.422c0.068,0.06,0.172-0.052,0.108-0.12
			c-1.148-1.211-2.361-2.26-3.632-3.175c-0.756-0.706-1.576-1.365-2.445-1.982c-0.258-0.212-0.512-0.43-0.776-0.628
			c-0.003-0.015,0.003-0.034-0.016-0.041c-0.024-0.007-0.049-0.014-0.073-0.022c-0.668-0.498-1.361-0.948-2.071-1.368
			c1.267,0.225,2.504,0.585,3.435,1.336c0.081,0.067,0.168-0.064,0.093-0.134c-1.262-1.173-2.912-1.422-4.494-1.814
			c-0.068-0.018-0.139-0.028-0.208-0.045c-0.621-0.325-1.257-0.623-1.901-0.897c0.946,0.04,1.896,0.105,2.854,0.226
			c0.049,0.006,0.055-0.072,0.007-0.084c-0.212-0.053-0.428-0.084-0.641-0.132c0.004-0.025,0.003-0.053-0.025-0.062
			c-0.963-0.295-1.922-0.576-2.882-0.841c0.767,0.011,1.535,0.032,2.307,0.078c0.1,0.005,0.116-0.154,0.015-0.167
			c-1.398-0.184-2.784-0.316-4.167-0.392c-0.556-0.14-1.111-0.272-1.668-0.399c1.774-0.406,3.592-0.719,5.502-0.894
			c0.05-0.004,0.036-0.084-0.012-0.082c-1.475,0.054-2.895,0.179-4.286,0.361c-0.596-0.137-1.199-0.267-1.81-0.392
			c-0.023-0.034-0.057-0.057-0.102-0.043c-0.016,0.004-0.031,0.008-0.047,0.013c-0.14-0.028-0.275-0.059-0.416-0.086
			c0.951-0.246,1.911-0.471,2.897-0.648c0.05-0.009,0.036-0.088-0.013-0.082c-1.255,0.141-2.52,0.332-3.785,0.56
			c-0.461-0.086-0.927-0.166-1.392-0.241c0.325-0.098,0.65-0.201,0.98-0.293c0.096-0.026,0.075-0.186-0.024-0.165
			c-0.524,0.101-1.045,0.212-1.566,0.325c0.018-0.03,0.028-0.06,0.026-0.097c0.887-0.219,1.787-0.396,2.727-0.467
			c0.046-0.003,0.042-0.083-0.001-0.082c-1.023,0.024-2.023,0.171-3.012,0.367c-0.079-0.012-0.158-0.021-0.236-0.033
			c0.056-0.013,0.112-0.03,0.17-0.042c0.196-0.044,0.15-0.362-0.049-0.331c-0.425,0.066-0.855,0.139-1.282,0.212
			c-0.577-0.077-1.156-0.144-1.741-0.206c0.711-0.36,1.418-0.731,2.114-1.129c0.043-0.026,0.015-0.099-0.031-0.076
			c-0.859,0.423-1.732,0.794-2.607,1.15c-0.081-0.007-0.164-0.018-0.247-0.025c0.432-0.17,0.861-0.345,1.293-0.514
			c0.192-0.075,0.061-0.37-0.126-0.306c-0.716,0.245-1.457,0.486-2.207,0.729c-0.275-0.021-0.551-0.035-0.828-0.052
			c0.388-0.162,0.775-0.326,1.164-0.489c0.108-0.04,0.214-0.076,0.321-0.115c0.012-0.004,0.004-0.016,0.009-0.024
			c0.225-0.094,0.445-0.187,0.672-0.281c0.142-0.06,0.045-0.284-0.097-0.229c-0.978,0.378-2.003,0.728-3.042,1.077
			c-0.641-0.027-1.283-0.033-1.924-0.035c1.339-0.409,2.69-0.767,4.06-1.052c0.05-0.01,0.036-0.091-0.013-0.083
			c-0.906,0.145-1.865,0.317-2.847,0.514c0.027-0.039,0.02-0.103-0.035-0.088c-0.759,0.214-1.549,0.415-2.352,0.616
			c-0.007-0.067-0.041-0.128-0.125-0.134c-0.374-0.029-0.751-0.048-1.127-0.069c0.394-0.156,0.786-0.311,1.172-0.487
			c0.047-0.021,0.015-0.096-0.032-0.077c-0.452,0.192-0.906,0.371-1.357,0.551c-0.251-0.013-0.503-0.028-0.754-0.039
			c0.578-0.304,1.152-0.613,1.737-0.91c0.065-0.032,0.018-0.144-0.047-0.108c-0.665,0.385-1.357,0.706-2.058,1.009
			c-0.575-0.02-1.147-0.031-1.724-0.032c0.291-0.156,0.583-0.306,0.87-0.469c0.219-0.125,0.071-0.498-0.159-0.383
			c-0.617,0.309-1.257,0.593-1.907,0.862c-0.066,0.001-0.132,0-0.197,0.002c0.464-0.311,0.918-0.631,1.394-0.931
			c0.126-0.081,0.039-0.308-0.096-0.229c-0.017,0.009-0.034,0.019-0.05,0.028c-1.816-0.009-3.616,0.337-5.36,0.903
			c-0.623-0.017-1.245-0.017-1.866,0.005c0.313-0.189,0.63-0.372,0.95-0.552c0.447-0.064,0.901-0.117,1.36-0.154
			c0.087-0.007,0.084-0.167-0.004-0.167c-0.27,0.004-0.544,0.017-0.815,0.026c0.837-0.45,1.69-0.879,2.58-1.255
			c0.05-0.021,0.016-0.091-0.029-0.076c-0.6,0.194-1.212,0.407-1.828,0.636c0.723-0.382,1.46-0.748,2.227-1.072
			c0.189-0.08,0.06-0.38-0.127-0.305c-1.517,0.593-3.034,1.329-4.504,2.179c-0.288,0.026-0.574,0.062-0.862,0.098
			c0.568-0.357,1.139-0.71,1.698-1.082c0.114-0.074-0.004-0.279-0.121-0.212c-0.861,0.488-1.865,0.979-2.916,1.505
			c-0.426,0.08-0.849,0.173-1.269,0.282c0.01-0.007,0.021-0.015,0.031-0.021c0.078-0.043,0.075-0.133,0.035-0.19
			c1.271-0.981,2.561-1.928,3.874-2.845c0.111-0.077-0.008-0.287-0.121-0.212c-1.31,0.847-2.736,1.732-4.138,2.702
			c-0.209,0.055-0.409,0.122-0.608,0.193c1.443-1.142,2.993-2.114,4.455-3.233c0.042-0.032-0.007-0.094-0.049-0.065
			c-1.889,1.292-4.014,2.521-5.901,4.021c-0.513,0.315-1.001,0.678-1.463,1.079c0.877-1.129,1.85-2.192,2.954-3.223
			c0.037-0.036-0.01-0.098-0.051-0.065c-1.572,1.301-3.181,2.798-4.503,4.508c-0.071,0.055-0.121,0.121-0.153,0.195
			C274.171,111.535,273.405,112.851,272.916,114.294z M292.091,108.447c-0.157,0.063-0.313,0.127-0.471,0.19
			c-0.161,0.024-0.32,0.06-0.478,0.088c-0.359-0.01-0.718-0.021-1.071-0.021c0.084-0.043,0.171-0.085,0.255-0.127
			c0.54-0.055,1.079-0.099,1.622-0.138C291.994,108.443,292.043,108.445,292.091,108.447z M280.938,109.983
			c0.001,0.001,0.001,0.002,0.002,0.002c-0.023,0.013-0.05,0.029-0.075,0.043c0.015-0.013,0.03-0.024,0.045-0.037
			C280.919,109.988,280.929,109.986,280.938,109.983z M303.325,109.519c0.104,0.003,0.208,0.014,0.311,0.018
			c-0.176,0.057-0.352,0.104-0.524,0.163c-0.091-0.014-0.178-0.025-0.268-0.039C303.003,109.612,303.165,109.564,303.325,109.519z
			 M278.52,110.246c0.041-0.036,0.084-0.073,0.124-0.108c0,0.006-0.001,0.012,0,0.018
			C278.604,110.185,278.562,110.217,278.52,110.246z M279.875,109.347c-0.037,0.023-0.074,0.045-0.11,0.068
			c-0.102,0.03-0.204,0.058-0.305,0.088c0.028-0.021,0.056-0.044,0.086-0.064C279.655,109.405,279.765,109.378,279.875,109.347z
			 M304.603,109.595c-0.009,0.001-0.019,0.004-0.027,0.006c0.007-0.002,0.012-0.005,0.019-0.008
			C304.598,109.594,304.601,109.595,304.603,109.595z M318.525,117.737c-1.133-0.447-2.265-0.854-3.396-1.228
			c0.79,0.185,1.569,0.406,2.331,0.67C317.82,117.353,318.176,117.54,318.525,117.737z M279.636,107.453
			c-0.296,0.215-0.592,0.435-0.884,0.66c-0.076,0.031-0.157,0.057-0.236,0.088c0.118-0.112,0.228-0.226,0.349-0.334
			c0.015-0.016,0.034-0.028,0.052-0.043C279.15,107.69,279.387,107.563,279.636,107.453z M283.147,107.507
			c-0.072,0.044-0.141,0.094-0.212,0.141c-0.055,0.026-0.107,0.048-0.164,0.076c-0.257,0.024-0.509,0.073-0.767,0.107
			c0.018-0.01,0.034-0.022,0.052-0.032C282.416,107.693,282.781,107.597,283.147,107.507z M291.37,106.852
			c-0.582,0.335-1.179,0.673-1.783,1.015c-0.558-0.063-1.119-0.115-1.685-0.157C289.023,107.301,290.18,107.004,291.37,106.852z
			 M293.469,108.361c-0.063,0.023-0.123,0.046-0.183,0.07c-0.208,0.02-0.416,0.041-0.623,0.066c0.011-0.007,0.022-0.012,0.034-0.018
			c0.015,0.002,0.031,0.001,0.047,0.002c0.047,0.005,0.07-0.03,0.076-0.067c0.017-0.009,0.034-0.016,0.05-0.025
			C293.068,108.378,293.269,108.368,293.469,108.361z M293.733,108.349c0.15-0.005,0.298-0.011,0.448-0.015
			c-0.194,0.015-0.388,0.044-0.58,0.062C293.645,108.38,293.689,108.365,293.733,108.349z M307.135,109.797
			c-0.398,0.081-0.794,0.173-1.19,0.263c-0.315-0.048-0.63-0.089-0.945-0.131c0.26-0.087,0.52-0.181,0.781-0.265
			C306.234,109.701,306.682,109.752,307.135,109.797z M308.991,110.003c-0.432,0.123-0.862,0.246-1.3,0.359
			c-0.15-0.027-0.3-0.051-0.447-0.078c0.401-0.123,0.81-0.231,1.217-0.342C308.638,109.964,308.814,109.979,308.991,110.003z
			 M309.138,110.648c-0.216-0.045-0.432-0.099-0.647-0.143c0.365-0.136,0.73-0.271,1.098-0.412c0.496,0.072,0.989,0.148,1.483,0.231
			C310.419,110.416,309.777,110.528,309.138,110.648z M311.148,111.265c-0.273-0.011-0.548-0.026-0.82-0.031
			c-0.242-0.065-0.484-0.122-0.728-0.184c0.046-0.011,0.091-0.021,0.138-0.032C310.208,111.1,310.681,111.169,311.148,111.265z
			 M312.924,112.063c-0.266-0.095-0.529-0.199-0.797-0.287c0.396-0.008,0.792-0.002,1.19,0c0.88,0.223,1.757,0.475,2.627,0.752
			C314.943,112.33,313.938,112.165,312.924,112.063z"/>
		<path style="fill:#281F18;" d="M337.208,82.137c-6.768-31.328-18.869-49.643-41.296-60.316
			c-18.659-8.88-33.755-6.533-38.301-5.493c-4.426-1.473-19.225-5.261-38.653,1.784c-23.348,8.467-43.36,26.427-53.11,56.959
			c-9.749,30.533-11.289,38.743-8.98,62.091c0,0,1.898,0.354,4.475,4.314c2.731,4.201,4.054,10.873,4.506,9.027
			c0.725-2.961,0.246-8.888,0.77-12.572c0.644-4.524,2.081-8.794,2.567-13.342c0.597-5.595,2.747-10.641,3.911-16.17
			c1.144-5.437,3.666-10.886,5.273-16.274c3.31-11.104,7.944-22.131,14.926-31.236c7.253-9.457,20.104-13.511,31.327-16.632
			c8.931-2.483,21.915-3.081,30.989-1.316c0.169-4.636,0.109-9.552,1.393-14.014c0.85,4.609,0.316,9.453,0.038,14.083
			c9.202-0.884,21.806,1.742,30.718,4.29c12.214,3.493,21.62,9.608,27.93,19.718c6.074,9.735,16.225,40.863,17.19,49.083
			c0.658,5.612,2.592,10.43,3.453,15.99c1.116,7.205,0.931,15.792,1.367,18.808c3.337-2.054,5.066-1.571,5.066-1.571
			C345.014,127.895,343.976,113.465,337.208,82.137z"/>
		<path style="fill:#B5B28F;" d="M190.991,283.7c-6.403-0.902-3.62,7.379-5.134,11.355c-1.036,2.72-2.671,5.289-3.992,7.884
			c-1.635,3.206-2.469,2.529-4.984,4.14c-3.153,2.015-1.098,5.084-1.861,8.102c-0.601,2.381-3.162,4.523-4.356,6.897
			c-1.848,3.679-5.252,12.048-3.691,16.174c0.624,1.649,3.412,3.902,4.771,5.023c4.517,3.728,9.177,6.62,14.28,9.489
			c5.28,2.969,10.827,5.24,15.96,8.463c3.186,1.999,6.837,3.758,10.364,5.026c13.389,4.812,30.245,3.095,44.243,2.534
			c11.409-0.459,19.043-3.677,28.355-9.785c6.472-4.244,10.824-10.308,17.065-14.782c7.338-5.264,12.688-11.753,16.53-19.923
			c3.046-6.472,5.55-13.72,6.441-20.882c0.353-2.829,0.105-5.705,0.207-8.569c0.115-3.224,0.038-3.254-2.342-5.557
			c-1.302-1.26-2.348-3.104-4.087-3.877c-1.186-0.526-2.608-0.149-3.33-1.092c-0.809-1.056-0.064-3.073-1.077-4.353
			c-0.926-1.17-1.93-1.533-3.445-1.484c-1.24-5.35-2.375-10.21-4.857-15.095c-2.879,3.963-3.36,9.506-6.145,13.634
			c-5.157,7.648-14.4,10.782-22.425,14.562c-17.076,8.039-33.602,15.206-52.837,13.268c-3.344-0.337-6.728-0.66-10.06-1.252
			c-2.665-0.472-6.444-0.642-8.867-1.854C197.836,297.804,190.991,283.7,190.991,283.7z"/>
		<g>
			<path style="fill:#B5B28F;" d="M323.854,500.001c4.228-32.902,9.643-66.686,7.783-99.311
				c-2.073-36.399-27.439-56.362-53.539-75.649l-24.513,8.386c-2.077,20.345,11.757,37.591,19.207,56.088
				c7.05,17.498,9.866,34.109,8.565,53.093c-1.286,18.745-4.699,38.412-8.029,57.395H323.854z"/>
			<path style="fill:#999976;" d="M331.638,400.69c-2.073-36.399-27.439-56.362-53.539-75.649l-7.094,2.427
				c11.929,17.468,25.149,33.685,36.502,51.513c8.318,13.064,12.965,25.014,13.463,40.772c0.547,17.287,1.887,35.006,0.358,52.3
				c-0.809,9.149-3.686,18.617-5.316,27.95h7.843C328.082,467.099,333.497,433.315,331.638,400.69z"/>
			<path style="fill:#B5B28F;" d="M320.186,500.001c1.085-12.926,4.939-26.314,5.779-38.777c1.182-17.52,2.547-35.085,2.561-52.732
				c0.023-26.929-16.149-48.648-34.17-67.101c-6.061-6.205-15.014-12.844-19.37-20.144l3.869-19.995
				c9.401-0.978,20.901,4.663,30.453,7.739c12.741,4.104,28.225,6.399,39.894,13.047c16.876,9.615,38.194,31.469,46.41,48.884
				c16.688,35.373,14.333,76.934-3.709,110.945c-2.997,5.648-7.106,11.768-10.976,18.134H320.186z"/>
			<path style="fill:#B5B28F;" d="M356.412,340.102c3.624,3.414,11.005,5.773,15.831,6.943c4.585,1.112,8.803,0.582,13.229-0.865
				c5.52-1.808,11.448-4.598,14.782-9.087c8.58,5.003,8.633,24.491,1.276,30.334c-6.764,5.37-20.111,10.105-28.479,5.866
				c-4.896-2.48-7.607-7.889-10.291-12.319c-3.641-6.01-7.283-10.892-9.819-17.402L356.412,340.102z"/>
			<g>
				<path style="fill:#005842;" d="M353.811,323.474c0.089,0.025,0.196,0.037,0.295,0.057c0-0.017,0.001-0.031,0.002-0.047
					L353.811,323.474z"/>
				<path style="fill:#C6C3A2;" d="M407.755,341.168c-1.27-11.863-2.493-27.502-12.9-35.478
					c-21.871-16.761-74.305-13.88-93.534,2.578l6.45,16.772c7.53-1.718,14.93-6.103,22.578-7.095
					c5.935,9.109,12.729,17.572,16.115,25.293c3.413,7.786,7.298,11.763,12.267,17.927c5.255,6.52,8.938,16.36,18.061,17.414
					c6.142,0.71,16.631-4.966,21.933-8.225C411.194,362.691,409.172,354.398,407.755,341.168z M401.466,363.745
					c-2.624,2.355-5.845,3.719-9.054,4.982c-4.081,1.607-10.459,4.527-13.397,0.162c-3.345-4.968-5.628-12.472-7.424-18.168
					c-2.418-7.674-1.831-21.051,0.51-29.91c1.923-0.15,3.832-0.174,5.519,0.205c7.04,1.58,12.457,10.406,15.666,16.265
					c3.627,6.627,6.328,13.292,9.373,20.126C403.984,360.386,404.038,361.438,401.466,363.745z"/>
			</g>
			<path style="fill:#C6C3A2;" d="M272.939,294.723c17.766,0.082,29.442,3.298,38.009,18.529c4.346,7.729,16.278,30.114,7.77,38.072
				c-4.582,4.284-28.895,5.138-35.473,3.402c-9.264-2.441-20.446-16.559-22.576-25.814c-1.231-5.345-0.57-14.694,2.594-18.708
				L272.939,294.723z"/>
			<path style="fill:#C6C3A2;" d="M283.905,299.884c-20.909-30.829-61.453-6.143-86.921,1.789
				c-12.63,3.938-38.061,6.667-40.187,22.899c-1.912,14.585,7.336,30.799,21.785,33.523c12.283,2.317,25.749,2.232,38.216,3.855
				c12.876,1.681,21.999,0.049,32.966-7.258c12.569-8.372,29.783-22.363,38.654-34.168L283.905,299.884z"/>
			<path style="fill:#B5B28F;" d="M237.914,302.288c-10.37,4.458-32.927,20.809-30.028,34.266
				c12.95-0.419,30.701-10.846,43.12-15.349c9.475-3.435,18.284-8.759,27.735-12.325c2.067-0.779,4.321-1.496,6.648-2.213
				l-1.483-6.783c-0.007-0.012-0.013-0.017-0.02-0.025C268.505,298.839,253.939,295.396,237.914,302.288z"/>
		</g>
	</g>
</g>
</svg>
