<?xml version="1.0" encoding="utf-8"?>
<!-- Generator: Adobe Illustrator 27.5.0, SVG Export Plug-In . SVG Version: 6.00 Build 0)  -->
<svg version="1.1" xmlns="http://www.w3.org/2000/svg" xmlns:xlink="http://www.w3.org/1999/xlink" x="0px" y="0px"
	 viewBox="0 0 750 500" style="enable-background:new 0 0 750 500;" xml:space="preserve">
<g id="BACKGROUND">
	<rect style="fill:#4359B2;" width="750" height="500"/>
	<g>
		<path style="fill:#3A519B;" d="M607.174,0h-79.293c10.038,25.73,10.7,55.81,6.266,83.553
			c-6.368,39.844-21.606,77.875-27.757,117.753c-6.151,39.878-1.514,84.595,26.318,113.81c10.888,11.429,24.68,19.792,35.487,31.298
			c19.999,21.293,27.941,51.585,28.408,80.793c0.391,24.456-3.906,48.65-8.119,72.793h51.234
			c-23.149-49.01-26.105-107.932-4.457-157.818c7.87-18.135,18.547-34.951,26.334-53.123c7.787-18.171,12.625-38.512,7.99-57.73
			c-7.341-30.434-35.681-50.252-54.755-75.077c-20.637-26.859-30.817-61.545-27.969-95.296C588.679,39.41,595.802,18.383,607.174,0z
			"/>
		<path style="fill:#3A519B;" d="M329.688,0c-1.187,33.665-14.381,67.293-24.987,99.945c-13.682,42.125-22.366,91.406,2.308,128.188
			c15.529,23.15,41.52,36.8,61.382,56.361c28.549,28.116,43.68,69.302,40.124,109.214C405.321,429.554,388.063,465.02,389.57,500
			h48.359c-0.274-2.638-0.502-5.275-0.674-7.904c-2.976-45.412,6.466-90.597,10.615-135.917c4.15-45.32,2.373-93.442-20.698-132.67
			c-10.522-17.891-25.031-33.125-36.206-50.616C358.193,121.597,359.034,51.354,391.202,0H329.688z"/>
		<path style="fill:#3A519B;" d="M72.162,0c-16.314,39.517-13.935,86.703,7.459,123.857c12.981,22.543,32.118,41.215,43.943,64.385
			c17.98,35.231,17.159,77.339,8.721,115.981c-8.438,38.643-23.918,75.379-34.322,113.54c-7.277,26.693-11.977,54.861-9.913,82.237
			H205.09c5.221-34.592,16.964-68.912,26.285-102.881c14.566-53.084,22.32-113.693-7.46-159.988
			c-11.637-18.09-28.148-32.441-41.802-49.061C139.873,136.651,128.366,62.179,151.47,0H72.162z"/>
	</g>
</g>
<g id="OBJECTS">
	<g>
		<g>
			<path style="fill:#5A79DB;" d="M17.316,137.29c-3.861,0-3.867,6,0,6C21.177,143.29,21.183,137.29,17.316,137.29z"/>
			<path style="fill:#5A79DB;" d="M147.072,179.111c-3.861,0-3.867,6,0,6C150.932,185.111,150.939,179.111,147.072,179.111z"/>
			<path style="fill:#5A79DB;" d="M23.75,367.846c-3.861,0-3.867,6,0,6C27.611,373.846,27.618,367.846,23.75,367.846z"/>
			<path style="fill:#5A79DB;" d="M217.847,351.761c-3.861,0-3.867,6,0,6C221.708,357.761,221.714,351.761,217.847,351.761z"/>
			<path style="fill:#5A79DB;" d="M372.266,138.362c-3.861,0-3.867,6,0,6C376.127,144.362,376.133,138.362,372.266,138.362z"/>
			<path style="fill:#5A79DB;" d="M451.621,21.475c-3.861,0-3.867,6,0,6C455.481,27.475,455.488,21.475,451.621,21.475z"/>
			<path style="fill:#5A79DB;" d="M687.539,27.909c-3.861,0-3.867,6,0,6C691.4,33.909,691.406,27.909,687.539,27.909z"/>
			<path style="fill:#5A79DB;" d="M677.888,125.494c-3.861,0-3.867,6,0,6C681.749,131.494,681.755,125.494,677.888,125.494z"/>
			<path style="fill:#5A79DB;" d="M536.337,273.479c-3.861,0-3.867,6,0,6C540.198,279.479,540.204,273.479,536.337,273.479z"/>
			<path style="fill:#5A79DB;" d="M410.871,274.551c-3.861,0-3.867,6,0,6C414.732,280.551,414.738,274.551,410.871,274.551z"/>
			<path style="fill:#5A79DB;" d="M345.457,475.082c-3.861,0-3.867,6,0,6C349.318,481.082,349.324,475.082,345.457,475.082z"/>
			<path style="fill:#5A79DB;" d="M637.138,354.978c-3.861,0-3.867,6,0,6C640.999,360.978,641.006,354.978,637.138,354.978z"/>
			<path style="fill:#5A79DB;" d="M732.578,277.768c-3.861,0-3.867,6,0,6C736.439,283.768,736.445,277.768,732.578,277.768z"/>
			<path style="fill:#5A79DB;" d="M591.027,477.227c-3.861,0-3.867,6,0,6C594.888,483.227,594.894,477.227,591.027,477.227z"/>
			<path style="fill:#5A79DB;" d="M263.958,140.507c-3.861,0-3.867,6,0,6C267.819,146.507,267.825,140.507,263.958,140.507z"/>
		</g>
		<g>
			<path style="fill:#2A427C;" d="M124.138,26.111c-4.504,0-4.512,7,0,7C128.642,33.111,128.65,26.111,124.138,26.111z"/>
			<path style="fill:#2A427C;" d="M224.172,176.161c-4.504,0-4.512,7,0,7C228.676,183.161,228.684,176.161,224.172,176.161z"/>
			<path style="fill:#2A427C;" d="M91.108,258.264c-4.504,0-4.512,7,0,7C95.612,265.264,95.62,258.264,91.108,258.264z"/>
			<path style="fill:#2A427C;" d="M323.262,318.662c-4.504,0-4.512,7,0,7C327.766,325.662,327.774,318.662,323.262,318.662z"/>
			<path style="fill:#2A427C;" d="M129.8,414.921c-4.504,0-4.512,7,0,7C134.304,421.921,134.312,414.921,129.8,414.921z"/>
			<path style="fill:#2A427C;" d="M448.776,178.049c-4.504,0-4.512,7,0,7C453.28,185.049,453.288,178.049,448.776,178.049z"/>
			<path style="fill:#2A427C;" d="M494.074,472.488c-4.504,0-4.512,7,0,7C498.579,479.488,498.586,472.488,494.074,472.488z"/>
			<path style="fill:#2A427C;" d="M597.883,181.824c-4.504,0-4.512,7,0,7C602.387,188.824,602.395,181.824,597.883,181.824z"/>
			<path style="fill:#2A427C;" d="M556.36,16.673c-4.504,0-4.512,7,0,7C560.864,23.673,560.871,16.673,556.36,16.673z"/>
			<path style="fill:#2A427C;" d="M727.172,154.456c-4.504,0-4.512,7,0,7C731.677,161.456,731.684,154.456,727.172,154.456z"/>
			<path style="fill:#2A427C;" d="M722.643,406.553c-4.504,0-4.512,7,0,7C727.147,413.553,727.155,406.553,722.643,406.553z"/>
		</g>
	</g>
	<g>
		<g>
			<path style="fill:#F4D96E;" d="M401.851,182.784c-0.068-0.031-0.135-0.057-0.203-0.088l10.091-57.406l1.583,0.312
				c1.675,0.33,3.23-0.962,3.213-2.669l-0.014-1.34c-0.013-1.297-0.949-2.4-2.226-2.624l-17.285-3.039
				c-1.262-0.222-2.506,0.476-2.973,1.67l-0.354,0.903c-0.612,1.563,0.34,3.3,1.987,3.624l2.91,0.573l-9.955,56.63
				c-24.429-1.559-39.578,25.463-31.328,45.972c5.597,13.913,25.141,22.573,41.263,19.049
				C431.346,237.184,431.569,196.255,401.851,182.784z"/>
			<path style="fill:#E86B8F;" d="M394.524,211.293c-2.512,1.045-5.092,2.43-7.788,2.054c-3.865-0.539-6.229-4.339-8.855-7.226
				c-3.1-3.409-7.217-5.868-11.668-7.047c-1.247-0.33-2.558,0.317-3.094,1.49c-3.234,7.073-3.828,15.41-0.871,22.759
				c4.74,11.782,21.29,19.116,34.943,16.132c15.163-3.314,22.085-15.156,21.159-27.081c-0.089-1.149-0.897-2.112-2.008-2.417
				C409.188,207.992,401.378,208.442,394.524,211.293z"/>
			<path style="fill:#FFFFFF;" d="M405.726,192.222c2.258,2.34,4.075,5.124,5.445,8.127c1.329,3.022,2.18,6.28,2.466,9.62
				c0.272,3.323,0.198,6.792-0.937,9.992c-1.107,3.179-2.857,6.163-5.332,8.399l-0.221-0.154c1.226-3.052,2.275-5.978,2.967-8.996
				c0.665-2.996,1.393-6.018,1.371-9.143c-0.006-3.108-0.542-6.241-1.568-9.227c-0.983-3.005-2.491-5.854-4.398-8.444
				L405.726,192.222z"/>
			<path style="fill:#FFFFFF;" d="M399.97,122.938c1.741,0.244,3.478,0.506,5.211,0.786c0.868,0.134,1.743,0.23,2.596,0.443
				c0.852,0.215,1.699,0.456,2.524,0.806l-0.013,0.066c-0.896,0.011-1.771-0.087-2.641-0.211c-0.869-0.126-1.716-0.369-2.57-0.575
				c-1.71-0.398-3.417-0.814-5.12-1.248L399.97,122.938z"/>
			<path style="fill:#E86B8F;" d="M376.516,192.21c-3.413-0.6-4.351,4.703-0.932,5.304
				C378.996,198.114,379.934,192.811,376.516,192.21z"/>
			<path style="fill:#E86B8F;" d="M393,182.205c-3.413-0.6-4.351,4.703-0.932,5.304C395.48,188.109,396.418,182.806,393,182.205z"/>
			<path style="fill:#E86B8F;" d="M397.684,199.437c-3.413-0.6-4.351,4.703-0.932,5.304
				C400.164,205.341,401.102,200.038,397.684,199.437z"/>
			<path style="fill:#E86B8F;" d="M400.355,161.901c-3.413-0.6-4.351,4.703-0.932,5.304
				C402.836,167.805,403.774,162.502,400.355,161.901z"/>
			<path style="fill:#E86B8F;" d="M400.352,139.376c-3.413-0.6-4.351,4.703-0.932,5.304
				C402.833,145.279,403.771,139.977,400.352,139.376z"/>
		</g>
		<g>
			<path style="fill:#75CBC1;" d="M688.513,435.695c-0.054,0.028-0.105,0.057-0.159,0.085l-31.501-35.406l0.998-0.852
				c1.055-0.901,1.017-2.545-0.08-3.395l-0.861-0.668c-0.833-0.646-2.009-0.606-2.797,0.095l-10.661,9.485
				c-0.778,0.693-0.961,1.838-0.436,2.738l0.397,0.681c0.687,1.179,2.275,1.449,3.313,0.563l1.834-1.566l31.075,34.927
				c-13.323,14.786-3.744,38.08,13.494,43.172c11.694,3.454,27.078-4.634,32.968-16.689
				C738.076,444.349,712.099,423.55,688.513,435.695z"/>
			<path style="fill:#F4D96E;" d="M702.988,454.754c-0.602,2.129-1.021,4.473-2.621,6.001c-2.294,2.192-5.91,1.781-9.075,1.997
				c-3.738,0.256-7.382,1.639-10.381,3.882c-0.84,0.628-1.089,1.79-0.612,2.725c2.877,5.631,7.891,10.217,14.068,12.042
				c9.903,2.925,22.931-3.924,27.919-14.133c5.54-11.339,1.485-21.727-6.584-27.155c-0.777-0.523-1.799-0.494-2.554,0.06
				C708.285,443.74,704.63,448.946,702.988,454.754z"/>
			<path style="fill:#FFFFFF;" d="M696.485,437.988c2.631-0.259,5.323-0.011,7.929,0.63c2.597,0.678,5.104,1.78,7.377,3.283
				c2.255,1.504,4.429,3.302,5.896,5.64c1.468,2.31,2.487,4.932,2.663,7.638l-0.21,0.063c-1.327-2.322-2.662-4.468-4.237-6.432
				c-1.575-1.936-3.133-3.925-5.136-5.489c-1.985-1.565-4.252-2.804-6.673-3.657c-2.412-0.89-4.988-1.367-7.602-1.459
				L696.485,437.988z"/>
			<path style="fill:#FFFFFF;" d="M649.415,406.69c1.034-0.987,2.077-1.962,3.131-2.925c0.523-0.486,1.026-0.995,1.592-1.431
				c0.567-0.435,1.148-0.853,1.787-1.202l0.036,0.042c-0.445,0.577-0.95,1.085-1.468,1.577c-0.519,0.491-1.101,0.907-1.663,1.348
				c-1.117,0.889-2.243,1.767-3.38,2.634L649.415,406.69z"/>
			<path style="fill:#F4D96E;" d="M681.735,456.602c-2.105,1.873,0.802,5.147,2.91,3.271
				C686.75,458,683.843,454.726,681.735,456.602z"/>
			<path style="fill:#F4D96E;" d="M683.677,441.045c-2.105,1.873,0.802,5.147,2.91,3.271
				C688.692,442.443,685.785,439.169,683.677,441.045z"/>
			<path style="fill:#F4D96E;" d="M697.026,446.756c-2.105,1.873,0.802,5.147,2.91,3.271
				C702.041,448.154,699.134,444.88,697.026,446.756z"/>
			<path style="fill:#F4D96E;" d="M674.446,426.108c-2.105,1.873,0.802,5.147,2.91,3.271
				C679.461,427.507,676.555,424.232,674.446,426.108z"/>
			<path style="fill:#F4D96E;" d="M660.086,414.742c-2.105,1.873,0.802,5.147,2.91,3.271
				C665.101,416.14,662.194,412.866,660.086,414.742z"/>
		</g>
		<g>
			<path style="fill:#75CBC1;" d="M317.968,448.188l-32.027-11.982c-1.646-0.616-2.944-1.915-3.559-3.561l-20.974-56.199
				l1.716-0.601c1.815-0.636,2.589-2.779,1.597-4.427l-0.778-1.294c-0.753-1.252-2.292-1.79-3.661-1.279l-18.527,6.915
				c-1.353,0.505-2.162,1.893-1.935,3.319l0.172,1.079c0.297,1.868,2.213,3.012,3.999,2.387l3.154-1.104l21.294,57.057
				c0.611,1.637,0.486,3.458-0.342,4.997l-17.165,31.895c-2.588,5.835,3.26,11.845,9.163,9.418l57.557-23.663
				C323.348,458.802,323.543,450.806,317.968,448.188z"/>
			<path style="fill:#FFFFFF;" d="M248.631,380.879c1.83-0.757,3.667-1.494,5.511-2.211c0.92-0.365,1.825-0.772,2.774-1.052
				c0.95-0.277,1.91-0.527,2.912-0.658l0.025,0.072c-0.865,0.522-1.771,0.926-2.687,1.302c-0.917,0.374-1.878,0.621-2.825,0.909
				c-1.889,0.59-3.784,1.16-5.687,1.71L248.631,380.879z"/>
			<path style="fill:#F4D96E;" d="M316.981,454.646c0.012-0.471-0.112-1.313-1.029-1.813l-24.082-9.01
				c-0.861-0.322-1.843-0.089-2.442,0.609c-0.629,0.732-1.198,1.515-1.688,2.349c-2.056,3.506-3.213,8.069-6.923,9.729
				c-3.661,1.637-7.795-0.466-11.757-1.091c-0.006-0.001-0.011-0.002-0.017-0.003c-0.908-0.142-1.802,0.338-2.237,1.147
				L255.5,477.571c-0.379,0.999,0.098,1.723,0.427,2.071c0.345,0.367,1.085,0.922,2.162,0.52l57.639-23.695
				C316.791,456.031,316.969,455.139,316.981,454.646z"/>
			<path style="fill:#FFFFFF;" d="M302.573,452.341c-2.1-0.502-4.036-1.305-5.935-2.179c-1.904-0.863-3.613-2.087-5.405-3.157
				l-5.357-3.246c-1.769-1.113-3.552-2.2-5.309-3.335l0.096-0.178c1.911,0.851,3.796,1.75,5.694,2.623l5.646,2.712
				c1.876,0.916,3.835,1.678,5.598,2.801c1.769,1.113,3.5,2.296,5.068,3.779L302.573,452.341z"/>
			<path style="fill:#F4D96E;" d="M274.41,446.337c-3.048,1.138-1.285,5.877,1.768,4.737
				C279.226,449.936,277.464,445.197,274.41,446.337z"/>
			<path style="fill:#F4D96E;" d="M276.13,429.451c-3.048,1.138-1.285,5.877,1.768,4.737
				C280.946,433.051,279.183,428.311,276.13,429.451z"/>
			<path style="fill:#F4D96E;" d="M264.716,416.063c-3.048,1.138-1.285,5.877,1.768,4.737
				C269.532,419.663,267.769,414.924,264.716,416.063z"/>
			<path style="fill:#F4D96E;" d="M262.161,390.946c-3.048,1.138-1.285,5.877,1.768,4.737
				C266.977,394.546,265.214,389.807,262.161,390.946z"/>
		</g>
		<g>
			<path style="fill:#F28D3B;" d="M523.335,250.257l-9.87-32.74c-0.507-1.683-0.26-3.503,0.678-4.989l32.005-50.734l1.518,1.001
				c1.605,1.059,3.779,0.376,4.49-1.411l0.558-1.403c0.54-1.358,0.035-2.908-1.2-3.687l-16.726-10.551
				c-1.221-0.77-2.816-0.573-3.813,0.471l-0.755,0.79c-1.306,1.369-1.055,3.586,0.524,4.628l2.79,1.84l-32.493,51.508
				c-0.932,1.478-2.457,2.482-4.183,2.756l-35.775,5.666c-6.21,1.476-7.449,9.769-1.941,12.996l53.696,31.456
				C518.151,260.968,524.631,256.279,523.335,250.257z"/>
			<path style="fill:#FFFFFF;" d="M534.88,154.316c1.711,0.997,3.41,2.012,5.098,3.045c0.848,0.51,1.72,0.984,2.518,1.57
				c0.797,0.588,1.577,1.201,2.288,1.918l-0.042,0.063c-0.939-0.371-1.81-0.848-2.664-1.348c-0.853-0.503-1.631-1.118-2.434-1.697
				c-1.613-1.145-3.215-2.308-4.805-3.488L534.88,154.316z"/>
			<path style="fill:#F4D96E;" d="M517.6,253.385c0.382-0.276,0.977-0.884,0.819-1.917l-7.422-24.618
				c-0.266-0.88-1.046-1.52-1.964-1.574c-0.964-0.057-1.931-0.036-2.892,0.081c-4.035,0.488-8.367,2.332-11.935,0.386
				c-3.521-1.921-4.352-6.484-6.255-10.015c-0.003-0.005-0.006-0.01-0.008-0.015c-0.437-0.808-1.36-1.229-2.268-1.085l-23.563,3.732
				c-1.024,0.304-1.311,1.122-1.389,1.595c-0.083,0.497-0.076,1.422,0.896,2.036l53.771,31.502
				C516.383,254.072,517.201,253.673,517.6,253.385z"/>
			<path style="fill:#FFFFFF;" d="M510.704,240.525c-0.872-1.975-1.407-4.002-1.862-6.042c-0.468-2.038-0.529-4.139-0.763-6.213
				l-0.663-6.229c-0.186-2.081-0.402-4.159-0.563-6.244l0.2-0.031c0.481,2.036,0.907,4.08,1.363,6.12l1.263,6.135
				c0.408,2.047,0.988,4.067,1.163,6.151c0.186,2.082,0.294,4.175,0.064,6.322L510.704,240.525z"/>
			<path style="fill:#F4D96E;" d="M498.42,214.481c-2.752-1.736-5.454,2.538-2.698,4.277
				C498.474,220.494,501.176,216.22,498.42,214.481z"/>
			<path style="fill:#F4D96E;" d="M512.896,205.62c-2.752-1.736-5.454,2.538-2.698,4.277
				C512.95,211.633,515.652,207.359,512.896,205.62z"/>
			<path style="fill:#F4D96E;" d="M516.632,188.428c-2.752-1.736-5.454,2.538-2.698,4.277
				C516.686,194.441,519.389,190.167,516.632,188.428z"/>
			<path style="fill:#F4D96E;" d="M535.067,171.179c-2.752-1.736-5.454,2.538-2.698,4.277
				C535.121,177.191,537.823,172.918,535.067,171.179z"/>
		</g>
		<g>
			<path style="fill:#E86B8F;" d="M515.01,407.784l0.897-1.563c0.868-1.513,0.534-3.429-0.794-4.56l-17.976-15.296
				c-1.313-1.117-3.23-1.154-4.585-0.089l-1.025,0.807c-1.775,1.396-1.854,4.058-0.164,5.556l2.962,2.627l-65.913,73.758
				l0.003,0.003c-1.311,1.467-2.232,3.281-2.528,5.26c-0.684,4.572,3.159,9.924,7.994,11.504c4.607,1.505,8.471-0.075,10.681-3.025
				l63.294-75.502l1.612,1.429C511.184,410.214,513.867,409.775,515.01,407.784z"/>
			<path style="fill:#FFFFFF;" d="M495.795,396.509c1.853,1.468,3.689,2.955,5.508,4.46c0.91,0.753,1.869,1.45,2.709,2.281
				c0.841,0.83,1.66,1.686,2.378,2.654l-0.06,0.068c-1.047-0.598-1.995-1.308-2.919-2.044c-0.926-0.735-1.733-1.603-2.589-2.416
				c-1.713-1.626-3.408-3.271-5.087-4.934L495.795,396.509z"/>
			<path style="fill:#F4D96E;" d="M440.935,480.048l0.074-0.099l38.178-45.541c0.868-1.035,0.52-2.529-0.626-3.243
				c-0.256-0.16-0.49-0.357-0.695-0.603c-1.501-1.803-0.104-4.556-0.577-6.854c-0.031-0.152-0.098-0.289-0.147-0.434
				c-0.383-0.827-1.123-0.729-1.524-0.281l0,0l-40.738,45.59l-3.089,3.46c-0.779,0.872-1.272,1.88-1.428,2.915
				c-0.228,1.527,0.864,3.709,2.598,5.184c0.729,0.621,1.533,1.085,2.324,1.343C438.483,482.529,440.197,481.033,440.935,480.048z"
				/>
			<path style="fill:#F4D96E;" d="M486.638,422.909c-2.219-1.888-5.158,1.557-2.935,3.449
				C485.922,428.247,488.861,424.801,486.638,422.909z"/>
			<path style="fill:#F4D96E;" d="M488.274,410.97c-2.219-1.888-5.158,1.558-2.935,3.449
				C487.559,416.308,490.497,412.862,488.274,410.97z"/>
			<path style="fill:#F4D96E;" d="M501.41,406.217c-2.219-1.888-5.158,1.557-2.935,3.449
				C500.694,411.555,503.633,408.109,501.41,406.217z"/>
			<path style="fill:#FFFFFF;" d="M461.457,452.782c-1.665,2.235-3.376,4.431-5.062,6.648l-5.149,6.575
				c-1.727,2.182-3.306,4.491-5.235,6.501c-1.919,2.02-3.905,3.981-6.183,5.694l-0.173-0.147c1.327-2.523,2.945-4.798,4.631-7.015
				c1.676-2.226,3.702-4.153,5.579-6.208l5.666-6.134c1.918-2.019,3.812-4.06,5.752-6.061L461.457,452.782z"/>
		</g>
		<g>
			<path style="fill:#F4D96E;" d="M183.489,12.65l-1.478,0.029c-1.43,0.028-2.636,1.072-2.87,2.483l-3.167,19.092
				c-0.231,1.394,0.552,2.758,1.872,3.261l1,0.381c1.73,0.659,3.635-0.409,3.975-2.229l0.596-3.191l79.667,15.21l0.001-0.003
				c1.585,0.302,3.249,0.184,4.765-0.442c3.503-1.448,5.643-6.409,4.714-10.474c-0.886-3.874-3.628-5.923-6.634-6.232
				l-79.788-12.634l0.324-1.737C186.812,14.314,185.371,12.613,183.489,12.65z"/>
			<path style="fill:#FFFFFF;" d="M183.671,30.916c0.25-1.922,0.521-3.84,0.811-5.754c0.145-0.957,0.231-1.926,0.46-2.867
				c0.228-0.942,0.484-1.878,0.862-2.792l0.073,0.014c0.022,0.988-0.078,1.954-0.205,2.915c-0.126,0.961-0.396,1.895-0.606,2.84
				c-0.42,1.89-0.861,3.776-1.322,5.659L183.671,30.916z"/>
			<path style="fill:#F28D3B;" d="M265.551,34.228l-0.101-0.01l-48.126-7.621c-1.094-0.173-1.997,0.702-2.016,1.809
				c-0.004,0.248-0.044,0.495-0.13,0.743c-0.634,1.816-3.159,1.996-4.575,3.298c-0.094,0.086-0.162,0.191-0.244,0.286
				c-0.42,0.618-0.039,1.097,0.446,1.19l0,0l49.241,9.4l3.736,0.712c0.942,0.18,1.859,0.101,2.652-0.226
				c1.17-0.484,2.242-2.173,2.548-4.014c0.129-0.775,0.116-1.536-0.036-2.201C268.329,34.906,266.554,34.332,265.551,34.228z"/>
			<path style="fill:#F28D3B;" d="M206.095,26.212c-0.391,2.357,3.272,2.969,3.663,0.608
				C210.15,24.463,206.487,23.851,206.095,26.212z"/>
			<path style="fill:#F28D3B;" d="M197.012,30.1c-0.391,2.357,3.271,2.969,3.663,0.608C201.066,28.351,197.404,27.739,197.012,30.1z
				"/>
			<path style="fill:#F28D3B;" d="M188.127,22.872c-0.391,2.357,3.272,2.969,3.663,0.608
				C192.181,21.122,188.519,20.511,188.127,22.872z"/>
			<path style="fill:#FFFFFF;" d="M237.722,31.308c2.274,0.227,4.54,0.503,6.81,0.753l6.795,0.845
				c2.263,0.294,4.552,0.429,6.779,0.936c2.229,0.497,4.447,1.065,6.612,1.944l-0.03,0.183c-2.334,0.132-4.616-0.045-6.886-0.295
				c-2.272-0.239-4.482-0.85-6.719-1.303l-6.704-1.394c-2.229-0.496-4.463-0.966-6.688-1.486L237.722,31.308z"/>
		</g>
		<g>
			<path style="fill:#F4D96E;" d="M191.118,199.031l33.938,26.992c3.124,2.485,3.637,7.034,1.145,10.152l-57.228,71.602
				c-2.582,3.231-7.346,3.634-10.434,0.884l-35.811-31.887c-2.971-2.645-3.24-7.196-0.602-10.173l59.101-66.708
				C183.77,197.022,188.115,196.643,191.118,199.031z"/>
			<path style="fill:#FFFFFF;" d="M191.249,202.425c4.839,3.794,9.655,7.617,14.512,11.387l14.589,11.29l0.912,0.705
				c0.303,0.233,0.607,0.464,0.919,0.745c0.606,0.551,1.109,1.218,1.473,1.955c0.744,1.474,0.876,3.215,0.474,4.801
				c-0.2,0.794-0.521,1.56-0.964,2.251c-0.468,0.7-0.953,1.261-1.428,1.873l-2.863,3.615c-3.81,4.826-7.703,9.586-11.551,14.383
				l-11.66,14.295l-5.835,7.144l-5.797,7.174c-3.875,4.774-7.702,9.587-11.53,14.399l-2.873,3.607l-1.429,1.81
				c-0.484,0.606-1.035,1.206-1.69,1.658c-1.299,0.912-2.903,1.439-4.513,1.336c-0.802-0.045-1.598-0.234-2.335-0.564
				c-0.373-0.16-0.716-0.374-1.055-0.594c-0.322-0.249-0.639-0.5-0.917-0.755c-9.216-8.142-18.469-16.244-27.656-24.419
				l-3.447-3.063c-0.553-0.485-1.213-1.062-1.685-1.762c-0.48-0.692-0.832-1.474-1.021-2.293c-0.388-1.637-0.18-3.382,0.519-4.897
				c0.348-0.751,0.859-1.455,1.381-2.049l1.52-1.734l12.211-13.827c8.136-9.221,16.317-18.404,24.579-27.513l12.377-13.679
				l3.082-3.431l1.534-1.722c0.517-0.568,1.001-1.165,1.584-1.69c1.157-1.047,2.674-1.682,4.227-1.78
				C188.446,200.976,190.034,201.452,191.249,202.425z M191.174,202.519c-1.201-0.943-2.756-1.391-4.269-1.273
				c-1.513,0.109-2.984,0.743-4.098,1.771c-0.555,0.509-1.039,1.114-1.55,1.688l-1.517,1.736l-3.021,3.484l-12.034,13.982
				c-8.011,9.331-16.105,18.591-24.243,27.81l-12.201,13.835l-1.531,1.724c-0.493,0.558-0.895,1.107-1.203,1.75
				c-0.596,1.272-0.779,2.739-0.465,4.102c0.152,0.682,0.439,1.329,0.831,1.901c0.389,0.58,0.893,1.031,1.489,1.562l3.427,3.086
				c9.145,8.222,18.225,16.517,27.341,24.771c1.057,1.079,2.429,1.713,3.904,1.818c1.469,0.118,2.959-0.344,4.18-1.173
				c0.621-0.416,1.128-0.952,1.612-1.536l1.455-1.789l2.893-3.591c3.86-4.786,7.722-9.571,11.535-14.395l5.736-7.223l5.698-7.253
				l11.405-14.499c3.841-4.801,7.636-9.64,11.515-14.411l2.903-3.583c0.475-0.596,0.998-1.201,1.389-1.776
				c0.395-0.6,0.681-1.268,0.864-1.96c0.367-1.384,0.262-2.898-0.345-4.195c-0.3-0.648-0.723-1.239-1.241-1.734
				c-0.253-0.241-0.553-0.484-0.855-0.727l-0.895-0.728l-14.315-11.636C200.789,210.187,195.97,206.367,191.174,202.519z"/>
			<path style="fill:#F28D3B;" d="M177.584,262.493l28.868-34.788c2.905-3.501,2.422-8.694-1.079-11.6l-0.002-0.002
				c-3.501-2.905-8.694-2.422-11.6,1.079l-28.118,33.884c-13.082-5.472-28.272,4.654-30.121,18.147
				c-1.364,9.954,7.131,21.483,17.681,24.786C173.392,300.318,186.727,279.699,177.584,262.493z"/>
			<g>
				<path style="fill:#FFFFFF;" d="M189.567,224.396c0.948,0.658,1.865,1.351,2.777,2.049c0.454,0.352,0.96,0.645,1.343,1.075
					c0.387,0.426,0.751,0.879,1.014,1.446l-0.06,0.067c-0.593-0.195-1.085-0.504-1.553-0.839c-0.472-0.331-0.822-0.8-1.223-1.21
					c-0.799-0.825-1.593-1.656-2.357-2.521L189.567,224.396z"/>
				<path style="fill:#FFFFFF;" d="M185.682,229.078c0.948,0.658,1.865,1.351,2.777,2.049c0.454,0.352,0.96,0.645,1.343,1.075
					c0.387,0.426,0.751,0.879,1.013,1.446l-0.06,0.067c-0.593-0.195-1.085-0.504-1.553-0.839c-0.472-0.331-0.822-0.8-1.223-1.21
					c-0.799-0.825-1.593-1.656-2.357-2.521L185.682,229.078z"/>
				<path style="fill:#FFFFFF;" d="M181.798,233.759c0.948,0.658,1.865,1.351,2.777,2.049c0.454,0.352,0.959,0.645,1.343,1.075
					c0.387,0.426,0.751,0.879,1.013,1.446l-0.06,0.067c-0.593-0.195-1.085-0.504-1.553-0.839c-0.472-0.331-0.822-0.8-1.223-1.21
					c-0.799-0.825-1.593-1.656-2.357-2.521L181.798,233.759z"/>
				<path style="fill:#FFFFFF;" d="M177.913,238.44c0.948,0.658,1.865,1.351,2.777,2.049c0.454,0.352,0.96,0.645,1.343,1.075
					c0.387,0.426,0.751,0.879,1.014,1.446l-0.06,0.067c-0.593-0.195-1.085-0.504-1.553-0.839c-0.472-0.331-0.822-0.8-1.223-1.21
					c-0.799-0.825-1.593-1.656-2.357-2.521L177.913,238.44z"/>
				<path style="fill:#FFFFFF;" d="M174.029,243.121c0.948,0.658,1.865,1.351,2.777,2.049c0.454,0.352,0.96,0.645,1.343,1.075
					c0.387,0.426,0.751,0.879,1.014,1.446l-0.06,0.067c-0.593-0.195-1.085-0.504-1.553-0.839c-0.472-0.332-0.822-0.8-1.223-1.21
					c-0.799-0.825-1.593-1.656-2.357-2.521L174.029,243.121z"/>
				<path style="fill:#FFFFFF;" d="M170.145,247.802c0.948,0.658,1.864,1.351,2.777,2.049c0.454,0.352,0.96,0.645,1.343,1.075
					c0.387,0.426,0.751,0.879,1.014,1.446l-0.06,0.067c-0.593-0.195-1.085-0.504-1.553-0.839c-0.472-0.331-0.822-0.8-1.223-1.21
					c-0.799-0.825-1.593-1.656-2.357-2.521L170.145,247.802z"/>
			</g>
			<path style="fill:#FFFFFF;" d="M174.423,268.453c0.444,1.858,0.556,3.803,0.422,5.735c-0.164,1.931-0.597,3.849-1.278,5.686
				c-0.687,1.825-1.505,3.677-2.843,5.154c-1.317,1.471-2.917,2.721-4.767,3.406l-0.103-0.148c1.255-1.487,2.423-2.881,3.457-4.379
				c1.014-1.493,2.137-2.934,2.928-4.596c0.797-1.65,1.38-3.417,1.712-5.242c0.363-1.822,0.45-3.705,0.294-5.589L174.423,268.453z"
				/>
		</g>
		<g>
			<path style="fill:#F4D96E;" d="M652.93,298.074l38.684-16.388c3.561-1.509,7.67,0.161,9.17,3.725l34.447,81.853
				c1.554,3.693-0.308,7.934-4.078,9.29l-43.717,15.717c-3.627,1.304-7.625-0.574-8.937-4.197l-29.414-81.182
				C647.819,303.398,649.508,299.524,652.93,298.074z"/>
			<path style="fill:#FFFFFF;" d="M655.88,299.534c5.469-2.362,10.952-4.691,16.41-7.08l16.363-7.19l1.023-0.45
				c0.338-0.151,0.676-0.302,1.06-0.438c0.749-0.261,1.55-0.38,2.346-0.348c1.599,0.05,3.142,0.743,4.305,1.819
				c0.583,0.538,1.087,1.166,1.47,1.862c0.379,0.722,0.632,1.395,0.933,2.082l1.751,4.111c2.344,5.477,4.593,10.994,6.894,16.489
				l6.768,16.541l3.379,8.273l3.422,8.255c2.269,5.508,4.594,10.993,6.917,16.479l1.74,4.115l0.879,2.054
				c0.291,0.692,0.548,1.439,0.628,2.206c0.175,1.528-0.119,3.137-0.952,4.46c-0.41,0.662-0.939,1.252-1.561,1.726
				c-0.308,0.243-0.65,0.436-0.994,0.623c-0.361,0.159-0.722,0.313-1.067,0.43c-11.196,4.075-22.375,8.199-33.585,12.233
				l-4.203,1.516c-0.669,0.246-1.465,0.54-2.28,0.618c-0.811,0.089-1.64,0.025-2.424-0.193c-1.573-0.427-2.961-1.413-3.927-2.709
				c-0.479-0.644-0.84-1.405-1.104-2.124l-0.772-2.096l-6.115-16.793c-4.082-11.193-8.109-22.406-12.037-33.656l-5.913-16.867
				l-1.493-4.211l-0.755-2.103c-0.244-0.702-0.529-1.391-0.706-2.131c-0.355-1.469-0.194-3.055,0.442-4.421
				C653.349,301.248,654.489,300.117,655.88,299.534z M655.925,299.641c-1.358,0.586-2.459,1.702-3.06,3.044
				c-0.607,1.339-0.749,2.884-0.39,4.308c0.176,0.708,0.467,1.4,0.719,2.1l0.775,2.095l1.567,4.184l6.329,16.715
				c4.233,11.138,8.367,22.313,12.446,33.507l6.127,16.789l0.758,2.101c0.247,0.678,0.528,1.274,0.933,1.834
				c0.807,1.096,1.971,1.931,3.276,2.295c0.651,0.187,1.334,0.242,2.003,0.173c0.674-0.062,1.291-0.282,2.019-0.544l4.213-1.488
				c11.231-3.977,22.494-7.865,33.739-11.802c1.408-0.4,2.582-1.274,3.354-2.481c0.781-1.195,1.077-2.677,0.937-4.1
				c-0.066-0.721-0.288-1.401-0.561-2.083l-0.849-2.066l-1.717-4.125c-2.287-5.501-4.571-11.003-6.911-16.481l-3.492-8.226
				l-3.535-8.207l-7.06-16.419c-2.308-5.492-4.669-10.962-6.934-16.471l-1.706-4.129c-0.287-0.681-0.56-1.405-0.869-2.005
				c-0.328-0.614-0.763-1.167-1.268-1.642c-1.008-0.953-2.345-1.565-3.73-1.648c-0.691-0.044-1.389,0.042-2.051,0.254
				c-0.322,0.104-0.669,0.247-1.014,0.391l-1.033,0.424l-16.53,6.797C666.902,295.008,661.421,297.341,655.925,299.641z"/>
			<path style="fill:#E86B8F;" d="M700.677,338.971l-16.243-40.674c-1.635-4.093-6.278-6.086-10.372-4.452l-0.003,0.001
				c-4.093,1.635-6.087,6.278-4.452,10.371l15.822,39.617c-10.713,8.601-9.127,26.216,1.5,34.036
				c7.84,5.769,21.585,3.876,29.281-3.574C730.928,360.05,719.553,339.155,700.677,338.971z"/>
			<g>
				<path style="fill:#FFFFFF;" d="M673.801,311.137c0.999-0.502,2.013-0.961,3.03-1.414c0.509-0.224,0.993-0.518,1.537-0.646
					c0.542-0.133,1.096-0.232,1.7-0.193l0.03,0.082c-0.441,0.415-0.931,0.69-1.433,0.933c-0.5,0.248-1.061,0.329-1.596,0.481
					c-1.072,0.298-2.147,0.59-3.237,0.839L673.801,311.137z"/>
				<path style="fill:#FFFFFF;" d="M675.986,316.61c0.999-0.502,2.013-0.961,3.03-1.414c0.509-0.224,0.993-0.518,1.537-0.646
					c0.542-0.132,1.096-0.232,1.7-0.193l0.03,0.082c-0.441,0.415-0.931,0.69-1.434,0.933c-0.5,0.248-1.061,0.329-1.596,0.481
					c-1.072,0.298-2.147,0.59-3.237,0.839L675.986,316.61z"/>
				<path style="fill:#FFFFFF;" d="M678.172,322.083c0.999-0.502,2.013-0.961,3.029-1.415c0.509-0.223,0.993-0.518,1.537-0.646
					c0.542-0.132,1.096-0.232,1.7-0.193l0.029,0.082c-0.441,0.415-0.931,0.69-1.433,0.933c-0.5,0.248-1.061,0.329-1.596,0.481
					c-1.072,0.298-2.147,0.59-3.237,0.839L678.172,322.083z"/>
				<path style="fill:#FFFFFF;" d="M680.358,327.556c0.999-0.502,2.013-0.961,3.029-1.414c0.509-0.224,0.993-0.518,1.537-0.646
					c0.542-0.132,1.096-0.232,1.7-0.193l0.03,0.082c-0.441,0.415-0.931,0.69-1.433,0.933c-0.5,0.248-1.061,0.329-1.596,0.481
					c-1.072,0.298-2.147,0.59-3.237,0.839L680.358,327.556z"/>
				<path style="fill:#FFFFFF;" d="M682.544,333.029c0.999-0.502,2.013-0.961,3.03-1.414c0.509-0.223,0.993-0.518,1.537-0.646
					c0.542-0.132,1.096-0.232,1.7-0.193l0.03,0.082c-0.441,0.415-0.931,0.69-1.434,0.933c-0.5,0.248-1.061,0.329-1.596,0.481
					c-1.072,0.298-2.147,0.59-3.237,0.839L682.544,333.029z"/>
				<path style="fill:#FFFFFF;" d="M684.729,338.502c0.999-0.502,2.013-0.961,3.03-1.414c0.509-0.224,0.993-0.518,1.537-0.646
					c0.542-0.132,1.096-0.232,1.7-0.193l0.03,0.082c-0.441,0.415-0.931,0.69-1.433,0.933c-0.501,0.248-1.061,0.329-1.596,0.481
					c-1.072,0.298-2.147,0.59-3.237,0.839L684.729,338.502z"/>
			</g>
			<path style="fill:#FFFFFF;" d="M704.285,344.42c1.787,0.482,3.494,1.287,5.077,2.296c1.567,1.034,2.999,2.29,4.248,3.72
				c1.235,1.429,2.433,2.983,3.07,4.805c0.643,1.802,0.966,3.742,0.692,5.634l-0.174,0.02c-0.684-1.756-1.331-3.396-2.126-4.969
				c-0.801-1.554-1.508-3.176-2.556-4.62c-1.035-1.442-2.269-2.756-3.668-3.884c-1.382-1.153-2.945-2.098-4.62-2.837L704.285,344.42
				z"/>
		</g>
		<g>
			<path style="fill:#F4D96E;" d="M35.47,398.402c-36.493,27.638-12.549,74.013,21.136,77.889c7.504,0.864,15.399-1.14,22.621-5.103
				c0.012-0.005,0.021-0.007,0.034-0.013c7.394-3.278,13.229,0.378,13.229,0.378l16.42-21.595
				c-2.785-2.203-5.232-7.238-4.139-10.914l-0.004,0.003C115.352,397.766,69.119,372.918,35.47,398.402z"/>
			<path style="fill:#F28D3B;" d="M96.972,469.115c-4.566-6.469-9.608-12.565-15.182-18.132c-2.776-2.792-5.686-5.448-8.717-7.955
				c-3.039-2.495-6.118-4.951-9.372-7.166c-1.62-1.115-3.232-2.249-4.902-3.293c-1.65-1.113-3.296-2.052-5.152-2.526
				c-0.91-0.227-1.859-0.349-2.746-0.185c-0.878,0.167-1.686,0.626-2.189,1.382c-0.515,0.737-0.658,1.68-0.506,2.593
				c0.152,0.918,0.552,1.802,1.079,2.598c0.533,0.797,1.176,1.513,1.949,2.107c0.734,0.634,1.563,1.156,2.426,1.601
				c1.727,0.895,3.632,1.432,5.565,1.625c3.854,0.407,7.896-0.623,10.884-3.024c2.991-2.397,4.896-6.001,5.452-9.747
				c0.28-1.875,0.229-3.795-0.182-5.626c-0.414-1.82-1.153-3.608-2.309-4.992c-1.131-1.372-2.788-2.311-4.353-1.919
				c-0.787,0.161-1.531,0.598-1.98,1.177c-0.459,0.579-0.58,1.263-0.357,1.991c0.446,1.458,2.048,2.84,3.349,4.301
				c1.348,1.442,2.712,2.87,4.089,4.285c11.017,11.32,22.681,22.005,34.894,32.097l-0.107,0.14
				c-12.887-9.231-24.976-19.621-36.088-30.965c-1.392-1.415-2.772-2.842-4.136-4.285c-0.685-0.734-1.357-1.414-2.053-2.193
				c-0.68-0.78-1.374-1.687-1.716-2.878c-0.168-0.595-0.214-1.237-0.095-1.886c0.125-0.644,0.425-1.238,0.816-1.721
				c0.792-0.969,1.886-1.548,3.033-1.775c1.141-0.259,2.437-0.039,3.432,0.478c1.032,0.501,1.874,1.264,2.555,2.1
				c2.664,3.424,3.284,7.864,2.591,11.902c-0.688,4.065-2.955,7.842-6.247,10.285c-3.302,2.486-7.557,3.3-11.538,2.873
				c-2.002-0.225-3.969-0.808-5.747-1.758c-1.747-0.969-3.466-2.142-4.63-3.85c-0.577-0.843-1.033-1.79-1.225-2.828
				c-0.198-1.031-0.04-2.179,0.552-3.103c0.558-0.935,1.571-1.583,2.622-1.82c1.06-0.241,2.13-0.141,3.141,0.063
				c2.021,0.413,3.907,1.402,5.574,2.43c1.726,0.992,3.418,2.044,5.083,3.138c13.246,8.861,24.516,20.711,32.595,34.366
				L96.972,469.115z"/>
			<path style="fill:#E86B8F;" d="M114.935,482.035c3.682,0.424,7.866-2.801,9-6.719c2.307-7.967-6.558-12.838-12.986-7.97
				C104.068,472.558,108.583,481.303,114.935,482.035z"/>
			<path style="fill:#E86B8F;" d="M119.347,454.642l-20.167,25.4c-0.681,0.857-1.862,1.132-2.851,0.662l-5.316-2.525
				c-1.349-0.641-1.767-2.36-0.863-3.549l20.439-26.88c0.798-1.049,2.303-1.238,3.335-0.418l5.044,4.004
				C119.985,452.145,120.155,453.625,119.347,454.642z"/>
			<path style="fill:#F28D3B;" d="M108.815,482.465l14.556-18.334c0.491-0.619,0.44-1.535-0.125-2.211l-5.365-5.431l-17.211,21.678
				l5.599,4.446C107.092,483.265,108.231,483.2,108.815,482.465z"/>
			<path style="fill:#FFFFFF;" d="M49.243,401.479c3.6-1.736,7.544-2.797,11.575-3.272c2.019-0.217,4.062-0.275,6.106-0.17
				c2.042,0.122,4.082,0.408,6.092,0.862c2.008,0.458,4.006,1.02,5.948,1.762c1.939,0.748,3.781,1.75,5.46,2.973
				c1.68,1.221,3.214,2.635,4.564,4.194c1.349,1.558,2.519,3.268,3.362,5.144l-0.276,0.219c-1.622-1.229-3.172-2.419-4.756-3.527
				c-1.582-1.108-3.194-2.127-4.829-3.079c-1.636-0.95-3.28-1.86-4.957-2.737c-1.673-0.883-3.421-1.657-5.243-2.221
				c-1.82-0.567-3.694-0.986-5.596-1.255c-1.901-0.286-3.833-0.421-5.771-0.404c-3.882-0.008-7.782,0.643-11.549,1.839
				L49.243,401.479z"/>
		</g>
		<g>
			<path style="fill:#F4D96E;" d="M534.44,36.825c-38.937-33.337-83.966,3.914-80.177,41.692
				c0.844,8.416,4.918,16.576,10.975,23.532c0.009,0.012,0.013,0.022,0.022,0.034c5.348,7.308,2.741,14.564,2.741,14.564
				l27.54,12.817c1.746-3.573,6.672-7.45,10.954-7.13l-0.004-0.004C554.179,124.069,570.342,67.564,534.44,36.825z"/>
			<path style="fill:#E86B8F;" d="M471.737,120.969c5.989-6.538,11.457-13.507,16.218-20.932c2.393-3.703,4.605-7.52,6.625-11.433
				c2.006-3.92,3.958-7.873,5.606-11.962c0.834-2.038,1.69-4.072,2.434-6.148c0.825-2.07,1.459-4.095,1.536-6.239
				c0.032-1.05-0.062-2.117-0.453-3.048c-0.392-0.921-1.087-1.695-2.034-2.066c-0.929-0.388-1.995-0.319-2.958,0.064
				c-0.967,0.385-1.84,1.033-2.585,1.8c-0.745,0.773-1.376,1.647-1.841,2.634c-0.519,0.955-0.892,1.986-1.173,3.036
				c-0.568,2.103-0.701,4.315-0.451,6.475c0.473,4.313,2.564,8.49,5.903,11.186c3.336,2.701,7.733,3.926,11.964,3.641
				c2.118-0.141,4.207-0.654,6.111-1.541c1.892-0.887,3.673-2.122,4.911-3.717c1.232-1.564,1.864-3.601,1.062-5.22
				c-0.363-0.823-1.019-1.533-1.76-1.886c-0.743-0.364-1.521-0.333-2.264,0.084c-1.489,0.835-2.619,2.917-3.907,4.69
				c-1.257,1.819-2.493,3.651-3.713,5.495c-9.759,14.752-18.668,30.06-26.798,45.828l-0.179-0.084
				c7.027-16.299,15.513-32.002,25.275-46.864c1.216-1.861,2.448-3.711,3.702-5.547c0.639-0.924,1.223-1.822,1.91-2.77
				c0.691-0.93,1.518-1.906,2.74-2.564c0.61-0.326,1.302-0.529,2.041-0.554c0.734-0.016,1.455,0.17,2.077,0.482
				c1.249,0.635,2.143,1.694,2.665,2.896c0.555,1.186,0.623,2.657,0.295,3.869c-0.302,1.249-0.936,2.352-1.688,3.296
				c-3.111,3.73-7.821,5.468-12.403,5.672c-4.612,0.216-9.284-1.363-12.742-4.382c-3.507-3.02-5.412-7.481-5.894-11.938
				c-0.231-2.244-0.063-4.534,0.553-6.707c0.644-2.142,1.517-4.302,3.109-5.984c0.784-0.833,1.712-1.557,2.802-2.014
				c1.081-0.462,2.374-0.563,3.526-0.135c1.156,0.388,2.106,1.341,2.616,2.434c0.516,1.102,0.662,2.296,0.679,3.451
				c0.03,2.309-0.602,4.609-1.33,6.678c-0.673,2.125-1.422,4.227-2.222,6.309c-6.536,16.604-16.814,31.759-29.827,43.854
				L471.737,120.969z"/>
			<path style="fill:#6EC1EA;" d="M461.885,143.702c0.414,4.129,4.94,7.938,9.496,8.245c9.266,0.624,12.482-10.235,5.624-16.107
				C469.662,129.553,461.17,136.578,461.885,143.702z"/>
			<path style="fill:#6EC1EA;" d="M492.905,141.998l-32.597-16.008c-1.1-0.54-1.682-1.768-1.404-2.962l1.495-6.418
				c0.379-1.629,2.161-2.496,3.677-1.791l34.281,15.954c1.338,0.623,1.904,2.224,1.253,3.549l-3.179,6.473
				C495.789,142.101,494.211,142.64,492.905,141.998z"/>
			<path style="fill:#E86B8F;" d="M459.955,137.108l23.529,11.555c0.794,0.39,1.785,0.115,2.389-0.664l4.663-7.164l-27.82-13.662
				l-3.529,7.186C458.668,135.414,459.012,136.645,459.955,137.108z"/>
			<path style="fill:#FFFFFF;" d="M534.357,52.626c2.758,3.525,4.858,7.587,6.34,11.884c0.718,2.157,1.269,4.379,1.642,6.64
				c0.353,2.263,0.526,4.563,0.509,6.871c-0.022,2.306-0.161,4.626-0.51,6.927c-0.356,2.299-1.013,4.553-1.951,6.682
				c-0.935,2.129-2.117,4.144-3.5,5.993c-1.383,1.847-2.975,3.535-4.827,4.905l-0.306-0.25c0.958-2.067,1.89-4.047,2.726-6.044
				c0.835-1.995,1.566-4.001,2.217-6.017c0.649-2.017,1.253-4.032,1.813-6.076c0.567-2.041,0.998-4.138,1.18-6.266
				c0.187-2.126,0.199-4.276,0.039-6.422c-0.141-2.148-0.453-4.293-0.934-6.41c-0.917-4.249-2.559-8.36-4.765-12.197L534.357,52.626
				z"/>
		</g>
		<g>
			<path style="fill:#6EC1EA;" d="M199.108,411.374c-2.543,2.048-5.231,3.808-7.972,5.467c-2.731,1.676-5.536,3.207-8.383,4.656
				c-2.85,1.442-5.743,2.799-8.709,4.011c-2.957,1.23-5.967,2.356-9.125,3.192c2.541-2.052,5.229-3.814,7.97-5.471
				c2.732-1.675,5.536-3.207,8.385-4.652c2.852-1.438,5.745-2.796,8.712-4.007C192.943,413.341,195.952,412.214,199.108,411.374z"/>
			<path style="fill:#6EC1EA;" d="M223.087,439.148c-4.009,2.849-8.167,5.412-12.378,7.874c-2.091,1.258-4.237,2.412-6.357,3.614
				l-6.441,3.453c-4.317,2.257-8.699,4.389-13.131,6.426c-4.432,2.035-8.919,3.967-13.555,5.611
				c4.007-2.853,8.164-5.417,12.375-7.878c4.212-2.458,8.474-4.823,12.8-7.063l6.524-3.292c2.202-1.045,4.378-2.14,6.609-3.13
				C213.968,442.729,218.453,440.795,223.087,439.148z"/>
			<path style="fill:#6EC1EA;" d="M185.852,349.919c-4.024,2.901-8.199,5.515-12.428,8.03c-2.1,1.284-4.255,2.465-6.384,3.694
				l-6.469,3.533c-4.337,2.31-8.739,4.496-13.192,6.589c-4.454,2.09-8.962,4.077-13.622,5.777c4.022-2.904,8.196-5.521,12.425-8.034
				c4.23-2.511,8.51-4.929,12.856-7.222l6.554-3.373c2.212-1.072,4.399-2.194,6.64-3.211
				C176.686,353.612,181.194,351.623,185.852,349.919z"/>
			<path style="fill:#F4D96E;" d="M215.483,425.74c-4.065,2.079-8.233,3.852-12.437,5.517c-2.092,0.861-4.222,1.612-6.334,2.414
				l-6.392,2.241c-4.277,1.446-8.6,2.758-12.956,3.97c-4.357,1.21-8.751,2.309-13.248,3.099c4.064-2.083,8.231-3.857,12.435-5.522
				c4.205-1.662,8.444-3.223,12.728-4.651l6.45-2.07c2.169-0.634,4.32-1.321,6.508-1.896
				C206.594,427.635,210.987,426.534,215.483,425.74z"/>
			<path style="fill:#F4D96E;" d="M182.858,374.748c-2.865,1.625-5.828,2.942-8.825,4.151c-2.991,1.228-6.032,2.3-9.101,3.285
				c-3.071,0.978-6.172,1.864-9.321,2.596c-3.144,0.751-6.322,1.391-9.6,1.721c2.863-1.629,5.826-2.948,8.824-4.156
				c2.992-1.227,6.033-2.299,9.103-3.28c3.073-0.973,6.173-1.86,9.323-2.591C176.403,375.723,179.581,375.082,182.858,374.748z"/>
			<path style="fill:#F4D96E;" d="M183.7,337.684c-5.072,2.413-10.246,4.52-15.457,6.518c-2.596,1.028-5.228,1.945-7.844,2.915
				l-7.902,2.742l-7.958,2.574c-2.673,0.799-5.325,1.657-8.017,2.397c-5.363,1.543-10.763,2.976-16.267,4.1
				c5.071-2.417,10.245-4.525,15.455-6.523c2.595-1.03,5.23-1.943,7.844-2.914l7.903-2.737l7.959-2.57
				c2.672-0.801,5.326-1.655,8.017-2.397C172.799,340.246,178.198,338.812,183.7,337.684z"/>
			<path style="fill:#E86B8F;" d="M177.736,325.95c2.163,2.674,3.982,5.645,5.388,8.825c1.368,3.195,2.329,6.559,2.997,9.985
				c0.618,3.438,0.829,6.931,0.859,10.421c-0.004,3.493-0.35,6.969-0.817,10.424c-0.514,3.448-1.232,6.862-2.121,10.23
				c-0.927,3.363-1.985,6.662-3.116,9.932c-2.308,6.521-4.923,12.887-7.331,19.286c-1.217,3.193-2.393,6.392-3.462,9.618
				c-1.052,3.229-1.982,6.488-2.781,9.771c-0.764,3.286-1.388,6.616-1.73,9.937c-0.264,3.338-0.343,6.7-0.102,10.052
				c0.538,6.685,2.142,13.349,5.252,19.337c1.57,2.973,3.461,5.803,5.804,8.263c2.383,2.41,5.116,4.482,8.139,6.137
				c-3.172-1.333-6.14-3.192-8.743-5.515c-2.581-2.348-4.748-5.127-6.6-8.101c-1.825-3-3.147-6.269-4.255-9.594
				c-1.085-3.342-1.698-6.81-2.141-10.29c-0.393-3.491-0.432-7.015-0.212-10.528c0.282-3.522,0.851-6.967,1.566-10.388
				c1.523-6.819,3.779-13.406,6.206-19.863c2.49-6.436,5.106-12.777,7.481-19.172c1.186-3.196,2.298-6.416,3.269-9.655
				c0.918-3.259,1.735-6.546,2.365-9.872c0.588-3.331,1.008-6.692,1.193-10.069c0.148-3.374,0.102-6.766-0.302-10.126
				c-0.411-3.355-1.109-6.687-2.222-9.904C181.143,331.903,179.618,328.835,177.736,325.95z"/>
			<path style="fill:#E86B8F;" d="M118.225,351.511c0.797,3.351,1.972,6.569,3.473,9.619c1.567,3.023,3.503,5.823,5.653,8.431
				c2.159,2.607,4.586,4.975,7.136,7.191c2.576,2.191,5.303,4.199,8.124,6.067c2.846,1.834,5.793,3.504,8.788,5.082
				c3.018,1.526,6.119,2.936,9.253,4.277c6.273,2.68,12.673,5.149,19.055,7.774c6.354,2.685,12.684,5.584,18.679,9.175
				c2.973,1.837,5.863,3.797,8.612,6.017c2.699,2.259,5.227,4.714,7.489,7.402c2.219,2.717,4.313,5.549,5.989,8.637
				c1.649,3.093,3.109,6.302,4.029,9.691c0.882,3.39,1.405,6.875,1.331,10.364c-0.108,3.487-0.803,6.92-2.02,10.138
				c0.88-3.332,1.259-6.741,1.152-10.128c-0.171-3.392-0.921-6.713-1.997-9.898c-2.202-6.378-5.931-12.13-10.408-17.122
				c-2.266-2.482-4.759-4.74-7.361-6.847c-2.644-2.039-5.489-3.879-8.398-5.587c-2.931-1.681-5.934-3.251-9.001-4.711
				c-3.075-1.446-6.206-2.796-9.359-4.112c-6.298-2.66-12.715-5.145-19.034-7.962c-3.151-1.432-6.272-2.935-9.349-4.578
				c-3.055-1.674-6.025-3.504-8.88-5.505c-2.826-2.04-5.587-4.182-8.122-6.584c-2.51-2.424-4.898-4.983-6.966-7.797
				c-2.024-2.843-3.802-5.857-5.178-9.048C119.577,358.286,118.675,354.921,118.225,351.511z"/>
		</g>
		<g>
			<path style="fill:#F28D3B;" d="M603.234,282.181c-2.624,1.24-5.314,2.202-8.027,3.064c-2.709,0.88-5.452,1.618-8.214,2.279
				c-2.763,0.653-5.546,1.223-8.362,1.653c-2.812,0.447-5.648,0.794-8.55,0.858c2.623-1.244,5.313-2.207,8.027-3.069
				c2.71-0.879,5.452-1.618,8.215-2.274c2.764-0.649,5.547-1.22,8.363-1.649C597.497,282.598,600.333,282.25,603.234,282.181z"/>
			<path style="fill:#F28D3B;" d="M618.174,311.177c-4.058,1.627-8.185,2.976-12.337,4.227c-2.069,0.652-4.163,1.202-6.246,1.8
				l-6.285,1.642c-4.201,1.051-8.432,1.981-12.686,2.819c-4.254,0.836-8.534,1.571-12.883,2.026
				c4.057-1.631,8.184-2.981,12.335-4.231c4.152-1.247,8.327-2.403,12.532-3.438l6.324-1.486c2.12-0.445,4.229-0.937,6.363-1.329
				C609.547,312.372,613.826,311.635,618.174,311.177z"/>
			<path style="fill:#F28D3B;" d="M604.576,226.312c-4.081,1.669-8.234,3.059-12.412,4.352c-2.082,0.673-4.19,1.244-6.286,1.863
				l-6.327,1.706c-4.229,1.094-8.489,2.066-12.772,2.947c-4.284,0.879-8.594,1.657-12.975,2.156
				c4.081-1.672,8.233-3.064,12.411-4.356c4.179-1.289,8.381-2.488,12.614-3.564l6.367-1.55c2.135-0.466,4.258-0.98,6.407-1.393
				C595.886,227.594,600.196,226.814,604.576,226.312z"/>
			<path style="fill:#F4D96E;" d="M614.395,298.006c-3.946,0.95-7.917,1.615-11.897,2.178c-1.988,0.309-3.984,0.514-5.977,0.767
				l-5.991,0.606c-3.998,0.359-8.006,0.593-12.023,0.733c-4.017,0.138-8.043,0.173-12.094-0.08c3.946-0.954,7.916-1.62,11.896-2.182
				c3.98-0.56,7.968-1.027,11.968-1.368l6.005-0.445c2.006-0.097,4.008-0.242,6.019-0.284
				C606.318,297.793,610.344,297.756,614.395,298.006z"/>
			<path style="fill:#F4D96E;" d="M596.818,247.145c-2.814,0.808-5.649,1.329-8.491,1.749c-2.841,0.438-5.692,0.731-8.549,0.944
				c-2.858,0.205-5.722,0.326-8.596,0.303c-2.873-0.006-5.754-0.114-8.655-0.512c2.814-0.811,5.649-1.334,8.491-1.754
				c2.841-0.437,5.692-0.731,8.55-0.939c2.858-0.201,5.722-0.322,8.596-0.298C591.037,246.644,593.917,246.751,596.818,247.145z"/>
			<path style="fill:#F4D96E;" d="M605.265,215.29c-4.886,1.029-9.796,1.772-14.715,2.414c-2.457,0.348-4.924,0.592-7.386,0.885
				l-7.4,0.724l-7.413,0.567c-2.476,0.134-4.947,0.323-7.428,0.402c-4.956,0.217-9.921,0.33-14.912,0.156
				c4.885-1.033,9.796-1.777,14.715-2.419c2.457-0.35,4.924-0.59,7.386-0.885l7.4-0.72l7.414-0.564
				c2.476-0.136,4.947-0.321,7.428-0.402C595.31,215.234,600.275,215.119,605.265,215.29z"/>
			<path style="fill:#75CBC1;" d="M602.554,203.907c1.313,2.762,2.266,5.708,2.818,8.749c0.517,3.046,0.647,6.153,0.511,9.253
				c-0.182,3.099-0.727,6.163-1.427,9.184c-0.731,3.018-1.754,5.95-2.877,8.838c-1.162,2.873-2.494,5.673-3.963,8.399
				c-1.501,2.713-3.103,5.344-4.761,7.935c-3.352,5.155-6.938,10.112-10.351,15.14c-1.716,2.506-3.399,5.026-4.994,7.591
				c-1.582,2.572-3.064,5.194-4.438,7.865c-1.344,2.681-2.577,5.428-3.564,8.228c-0.923,2.829-1.691,5.719-2.182,8.666
				c-0.927,5.889-0.929,11.982,0.512,17.805c0.737,2.896,1.783,5.736,3.295,8.349c1.557,2.579,3.488,4.938,5.755,6.998
				c-2.463-1.813-4.641-4.037-6.407-6.586c-1.742-2.567-3.036-5.419-4.016-8.375c-0.952-2.973-1.414-6.073-1.679-9.177
				c-0.242-3.114-0.049-6.239,0.293-9.339c0.388-3.099,1.088-6.152,2.009-9.142c0.977-2.985,2.186-5.844,3.516-8.651
				c2.736-5.576,6.057-10.799,9.5-15.873c3.492-5.043,7.073-9.979,10.458-15.01c1.69-2.515,3.322-5.066,4.836-7.663
				c1.472-2.625,2.863-5.296,4.099-8.039c1.201-2.756,2.265-5.573,3.128-8.453c0.831-2.885,1.497-5.826,1.847-8.814
				c0.343-2.985,0.434-6.01,0.142-9.022C604.259,209.761,603.579,206.792,602.554,203.907z"/>
			<path style="fill:#75CBC1;" d="M545.802,213.605c-0.009,3.062,0.336,6.088,0.998,9.036c0.724,2.938,1.815,5.761,3.13,8.463
				c1.323,2.702,2.927,5.255,4.669,7.7c1.77,2.43,3.709,4.733,5.757,6.934c2.078,2.177,4.276,4.234,6.536,6.222
				c2.29,1.947,4.677,3.812,7.106,5.623c4.863,3.623,9.88,7.089,14.849,10.686c4.932,3.644,9.799,7.467,14.232,11.818
				c2.187,2.207,4.276,4.502,6.189,6.993c1.862,2.514,3.536,5.162,4.93,7.956c1.352,2.81,2.571,5.694,3.377,8.712
				c0.781,3.016,1.375,6.094,1.464,9.214c0.056,3.113-0.217,6.234-1.008,9.233c-0.819,2.991-2.135,5.813-3.857,8.34
				c1.455-2.696,2.492-5.563,3.105-8.513c0.559-2.967,0.602-5.993,0.336-8.969c-0.575-5.97-2.599-11.717-5.43-16.964
				c-1.441-2.617-3.125-5.087-4.936-7.45c-1.861-2.313-3.936-4.495-6.094-6.578c-2.183-2.063-4.451-4.045-6.797-5.945
				c-2.356-1.89-4.781-3.708-7.232-5.502c-4.889-3.61-9.917-7.094-14.791-10.844c-2.425-1.894-4.809-3.843-7.126-5.904
				c-2.291-2.083-4.477-4.283-6.527-6.607c-2.018-2.352-3.957-4.778-5.648-7.382c-1.664-2.617-3.195-5.326-4.396-8.189
				c-1.157-2.879-2.066-5.853-2.59-8.898C545.56,219.741,545.481,216.645,545.802,213.605z"/>
		</g>
		<g>
			<path style="fill:#FFFFFF;" d="M321.189,275.601c3.615,0.773,7.215,1.604,10.823,2.404l10.795,2.511
				c3.594,0.851,7.238,1.516,10.766,2.619c3.531,1.09,7.04,2.264,10.453,3.802l-0.057,0.215c-3.727-0.351-7.358-1.066-10.966-1.866
				c-3.611-0.787-7.107-2.011-10.652-3.049l-10.624-3.157c-3.531-1.09-7.071-2.148-10.595-3.264L321.189,275.601z"/>
			<path style="fill:#FFFFFF;" d="M298.671,200.451c-3.147-0.017-6.218-0.402-9.272-0.874c-3.056-0.459-6.022-1.36-9.027-2.074
				l-9.005-2.183c-2.994-0.765-5.994-1.499-8.982-2.292l0.045-0.218c3.059,0.444,6.107,0.948,9.161,1.419l9.138,1.528
				c3.043,0.524,6.125,0.859,9.116,1.637c2.994,0.765,5.97,1.617,8.871,2.837L298.671,200.451z"/>
			<path style="fill:#FFFFFF;" d="M307.128,250.988c-0.455-3.152-0.849-6.309-1.276-9.463l-1.166-9.472
				c-0.374-3.159-0.94-6.301-1.055-9.482c-0.128-3.18-0.169-6.368,0.165-9.589l0.222-0.019c0.889,3.113,1.404,6.26,1.831,9.414
				c0.44,3.153,0.43,6.345,0.611,9.521l0.5,9.531c0.128,3.18,0.289,6.358,0.389,9.54L307.128,250.988z"/>
			<path style="fill:#FFFFFF;" d="M292.931,335.025c-3.844-1.547-7.663-3.148-11.496-4.721l-11.45-4.822
				c-3.811-1.621-7.701-3.066-11.404-4.923c-3.709-1.845-7.382-3.771-10.899-6.038l0.092-0.203
				c4.024,1.149,7.893,2.641,11.726,4.214c3.838,1.56,7.49,3.532,11.22,5.329l11.175,5.43c3.709,1.845,7.431,3.661,11.129,5.532
				L292.931,335.025z"/>
			<path style="fill:#FFFFFF;" d="M292.702,277.874c-3.632,2.085-7.292,4.116-10.937,6.176l-10.988,6.078
				c-3.669,2.013-7.25,4.197-11.039,5.979c-3.783,1.794-7.606,3.51-11.603,4.892l-0.102-0.198c3.431-2.472,7.035-4.61,10.68-6.671
				c3.639-2.072,7.486-3.742,11.244-5.584l11.296-5.485c3.783-1.794,7.551-3.617,11.347-5.386L292.702,277.874z"/>
			<path style="fill:#E86B8F;" d="M285.596,253.545c-7.047,8.373-5.788,23.277,2.162,31.742
				c16.167,17.214,42.763,2.654,41.045-20.117C326.963,240.79,297.754,239.099,285.596,253.545z"/>
			<path style="fill:#FFFFFF;" d="M321.27,267.135c0.37,2.326,0.168,4.753-0.48,7.068c-0.685,2.305-1.845,4.498-3.444,6.371
				c-1.594,1.852-3.547,3.547-5.909,4.373c-2.328,0.833-4.892,1.092-7.238,0.438l0.004-0.223c2.313-0.582,4.408-1.276,6.364-2.264
				c1.922-0.993,3.891-1.991,5.479-3.541c1.584-1.529,2.848-3.429,3.693-5.52c0.882-2.081,1.322-4.367,1.309-6.684L321.27,267.135z"
				/>
			<path style="fill:#F28D3B;" d="M360.223,279.451c-4.742,5.634-3.894,15.662,1.454,21.357
				c10.878,11.582,28.772,1.786,27.617-13.536C388.056,270.869,368.403,269.731,360.223,279.451z"/>
			<path style="fill:#FFFFFF;" d="M384.225,288.595c0.249,1.565,0.113,3.198-0.323,4.756c-0.461,1.551-1.241,3.026-2.317,4.286
				c-1.073,1.246-2.387,2.386-3.976,2.942c-1.566,0.56-3.292,0.735-4.87,0.295l0.002-0.15c1.556-0.392,2.966-0.859,4.282-1.523
				c1.293-0.669,2.618-1.34,3.687-2.382c1.065-1.029,1.916-2.307,2.485-3.714c0.594-1.4,0.889-2.938,0.881-4.497L384.225,288.595z"
				/>
			<path style="fill:#F28D3B;" d="M294.838,192.08c-4.742,5.634-3.894,15.662,1.454,21.357
				c10.878,11.582,28.773,1.786,27.617-13.536C322.672,183.498,303.019,182.36,294.838,192.08z"/>
			<path style="fill:#FFFFFF;" d="M318.841,201.224c0.249,1.565,0.113,3.198-0.323,4.756c-0.461,1.551-1.241,3.026-2.317,4.286
				c-1.073,1.246-2.387,2.386-3.976,2.942c-1.566,0.56-3.292,0.735-4.87,0.295l0.002-0.15c1.556-0.392,2.966-0.859,4.282-1.523
				c1.293-0.669,2.618-1.34,3.687-2.382c1.066-1.029,1.916-2.307,2.485-3.714c0.594-1.4,0.889-2.938,0.881-4.497L318.841,201.224z"
				/>
			<path style="fill:#6EC1EA;" d="M251.586,185.483c-3.029,3.599-2.488,10.006,0.929,13.644c6.949,7.399,18.381,1.141,17.643-8.647
				C269.368,180,256.813,179.273,251.586,185.483z"/>
			<path style="fill:#FFFFFF;" d="M266.921,191.324c0.146,0.999,0.073,2.042-0.206,3.038c-0.294,0.991-0.793,1.934-1.48,2.738
				c-0.685,0.796-1.525,1.525-2.54,1.88c-1.001,0.358-2.103,0.469-3.111,0.188l0.001-0.096c0.994-0.25,1.895-0.549,2.736-0.973
				c0.826-0.427,1.673-0.856,2.355-1.522c0.681-0.657,1.224-1.474,1.587-2.373c0.379-0.893,0.581-1.877,0.563-2.873L266.921,191.324
				z"/>
			<path style="fill:#6EC1EA;" d="M282.638,334.536c-3.029,3.599-2.488,10.006,0.929,13.644c6.949,7.399,18.381,1.141,17.643-8.647
				C300.419,329.053,287.864,328.326,282.638,334.536z"/>
			<path style="fill:#FFFFFF;" d="M297.972,340.377c0.146,1,0.073,2.042-0.206,3.038c-0.294,0.991-0.793,1.933-1.48,2.738
				c-0.685,0.796-1.525,1.525-2.54,1.88c-1.001,0.358-2.103,0.469-3.111,0.188l0.001-0.096c0.994-0.25,1.895-0.549,2.736-0.973
				c0.826-0.427,1.673-0.856,2.355-1.522c0.681-0.657,1.224-1.474,1.587-2.373c0.378-0.893,0.581-1.877,0.563-2.873L297.972,340.377
				z"/>
			<path style="fill:#F28D3B;" d="M229.217,298.366c-4.741,5.634-3.894,15.662,1.454,21.357
				c10.878,11.582,28.772,1.786,27.617-13.536C257.051,289.784,237.398,288.647,229.217,298.366z"/>
			<path style="fill:#FFFFFF;" d="M253.22,307.51c0.249,1.565,0.113,3.198-0.323,4.756c-0.461,1.551-1.241,3.026-2.317,4.286
				c-1.073,1.246-2.387,2.387-3.976,2.942c-1.566,0.56-3.292,0.735-4.87,0.295l0.002-0.15c1.556-0.392,2.966-0.859,4.282-1.523
				c1.293-0.668,2.618-1.339,3.687-2.382c1.066-1.029,1.916-2.307,2.485-3.714c0.594-1.4,0.889-2.938,0.881-4.497L253.22,307.51z"/>
		</g>
		<g>
			<path style="fill:#F28D3B;" d="M198.645,81.156c-1.101-1.071-2.856-1.022-3.918,0.088c-7.187,7.515-15.081,14.365-21.786,22.312
				c-7.307,8.66-13.275,19.025-14.022,30.331c-0.748,11.306,4.804,23.52,15.193,28.043c10.081,4.389,21.827,0.833,31.622-4.163
				c13.993-7.137,26.489-17.191,36.466-29.322c0.888-1.08,0.796-2.664-0.188-3.659l-4.578-4.628
				c-1.117-1.13-2.969-1.089-4.009,0.113c-7.855,9.081-17.239,16.915-27.428,22.879c-7.332,4.292-15.947,7.699-22.793,5.301
				c-7.055-2.471-10.106-10.798-8.743-18.938s6.368-15.991,12.201-22.721c5.231-6.036,11.193-11.406,16.747-17.157
				c1.056-1.093,1.042-2.83-0.048-3.891L198.645,81.156z"/>
			<path style="fill:#E86B8F;" d="M196.76,96.284c2.233-2.2,4.472-4.395,6.648-6.648c1.056-1.093,1.042-2.83-0.048-3.89
				l-4.716-4.589c-1.101-1.071-2.856-1.022-3.918,0.088c-1.863,1.948-3.775,3.851-5.7,5.741L196.76,96.284z"/>
			<path style="fill:#E86B8F;" d="M234.946,136.445c2.54-2.553,4.966-5.22,7.254-8.001c0.888-1.08,0.796-2.664-0.188-3.659
				l-4.578-4.628c-1.117-1.13-2.97-1.089-4.009,0.113c-2.493,2.882-5.155,5.622-7.932,8.233L234.946,136.445z"/>
			<path style="fill:#FFFFFF;" d="M176.958,157.492c2.72,0.719,5.535,0.947,8.308,0.792c2.777-0.124,5.523-0.623,8.184-1.389
				c2.671-0.759,5.185-1.927,7.748-2.96c2.567-1.049,5.074-2.243,7.684-3.401l0.103,0.152c-2.056,2.002-4.467,3.601-7.02,4.913
				c-2.556,1.326-5.361,2.093-8.156,2.717c-2.802,0.614-5.671,0.944-8.533,0.885c-2.86-0.088-5.706-0.574-8.373-1.533
				L176.958,157.492z"/>
			<path style="fill:#6EC1EA;" d="M210.434,86.801c3.431-0.447,6.995-0.013,10.347,1.077c3.364,1.073,6.53,2.844,9.246,5.154
				c2.713,2.313,4.963,5.159,6.556,8.311c1.608,3.137,2.6,6.589,2.698,10.048c-1.223-3.227-2.712-6.223-4.548-8.965
				c-1.851-2.726-4.015-5.196-6.488-7.305c-2.471-2.111-5.253-3.857-8.238-5.253C217.009,88.489,213.813,87.494,210.434,86.801z"/>
			<path style="fill:#6EC1EA;" d="M212,76.676c4.534-0.407,9.193,0.258,13.573,1.748c2.204,0.721,4.314,1.716,6.351,2.84
				c2.024,1.15,3.933,2.505,5.726,3.999c1.762,1.531,3.397,3.205,4.858,5.018c1.431,1.835,2.75,3.759,3.811,5.821
				c2.166,4.089,3.559,8.585,3.872,13.127c-1.437-4.31-3.327-8.35-5.721-12.043c-1.22-1.829-2.5-3.61-3.959-5.239
				c-1.428-1.651-2.971-3.2-4.642-4.595c-1.639-1.432-3.417-2.705-5.27-3.859c-1.841-1.18-3.8-2.166-5.8-3.08
				C220.773,78.634,216.483,77.409,212,76.676z"/>
			<path style="fill:#6EC1EA;" d="M212.404,66.09c5.843-0.36,11.802,0.579,17.403,2.544c2.814,0.959,5.515,2.241,8.115,3.7
				c2.587,1.485,5.031,3.221,7.323,5.14c2.26,1.956,4.358,4.098,6.238,6.414c1.85,2.338,3.547,4.799,4.939,7.427
				c2.828,5.219,4.698,10.955,5.265,16.782c-1.691-5.595-4.058-10.875-7.114-15.698c-1.551-2.394-3.209-4.713-5.087-6.845
				c-1.848-2.154-3.852-4.171-6.021-5.991c-2.138-1.857-4.45-3.512-6.867-4.999c-2.404-1.515-4.954-2.788-7.564-3.939
				C223.786,68.37,218.197,66.87,212.404,66.09z"/>
		</g>
		<g>
			<path style="fill:#6EC1EA;" d="M451.967,331.908c-0.931,1.222-0.67,2.959,0.561,3.878c8.328,6.227,16.081,13.236,24.78,18.932
				c9.479,6.207,20.489,10.88,31.802,10.256c11.313-0.624,22.767-7.61,26.003-18.469c3.14-10.537-1.81-21.768-7.952-30.888
				c-8.775-13.029-20.264-24.219-33.512-32.658c-1.179-0.751-2.741-0.468-3.609,0.628l-4.042,5.104
				c-0.987,1.246-0.723,3.079,0.596,3.966c9.964,6.7,18.873,15.07,26.025,24.463c5.146,6.76,9.569,14.9,8.015,21.986
				c-1.601,7.302-9.498,11.336-17.743,10.967c-8.245-0.369-16.643-4.39-24.028-9.367c-6.624-4.464-12.675-9.733-19.054-14.552
				c-1.213-0.916-2.935-0.692-3.856,0.517L451.967,331.908z"/>
			<path style="fill:#F4D96E;" d="M467.212,331.952c-2.453-1.951-4.903-3.908-7.403-5.797c-1.213-0.916-2.935-0.692-3.856,0.518
				l-3.986,5.235c-0.931,1.222-0.67,2.959,0.561,3.878c2.159,1.614,4.279,3.282,6.387,4.965L467.212,331.952z"/>
			<path style="fill:#F4D96E;" d="M502.467,289.194c-2.841-2.213-5.781-4.299-8.819-6.234c-1.179-0.751-2.741-0.468-3.609,0.628
				l-4.042,5.104c-0.987,1.246-0.722,3.079,0.596,3.966c3.162,2.126,6.203,4.438,9.13,6.88L502.467,289.194z"/>
			<path style="fill:#FFFFFF;" d="M530.364,344.215c0.385-2.787,0.271-5.609-0.217-8.343c-0.458-2.741-1.285-5.408-2.368-7.956
				c-1.076-2.559-2.539-4.915-3.874-7.334c-1.352-2.421-2.839-4.766-4.305-7.217l0.138-0.12c2.236,1.799,4.115,4,5.725,6.375
				c1.625,2.377,2.725,5.069,3.683,7.768c0.948,2.707,1.621,5.515,1.909,8.364c0.258,2.849,0.119,5.733-0.51,8.497L530.364,344.215z
				"/>
			<path style="fill:#E86B8F;" d="M456.147,319.523c-0.858-3.352-0.858-6.943-0.181-10.402c0.659-3.47,2.034-6.825,3.999-9.801
				c1.968-2.973,4.522-5.55,7.458-7.512c2.92-1.975,6.227-3.377,9.649-3.892c-3.056,1.603-5.85,3.443-8.35,5.597
				c-2.483,2.167-4.673,4.613-6.467,7.323c-1.798,2.708-3.194,5.681-4.22,8.813C457.028,312.792,456.427,316.084,456.147,319.523z"
				/>
			<path style="fill:#E86B8F;" d="M445.907,319.191c-0.952-4.452-0.855-9.157,0.095-13.685c0.45-2.275,1.183-4.489,2.052-6.647
				c0.898-2.148,2.012-4.207,3.278-6.167c1.307-1.934,2.771-3.76,4.395-5.429c1.649-1.642,3.399-3.184,5.318-4.486
				c3.797-2.644,8.093-4.57,12.563-5.429c-4.105,1.947-7.887,4.311-11.264,7.134c-1.668,1.432-3.281,2.918-4.722,4.562
				c-1.466,1.617-2.818,3.336-4,5.163c-1.224,1.8-2.273,3.719-3.194,5.697c-0.949,1.97-1.691,4.034-2.357,6.13
				C446.791,310.246,446.093,314.652,445.907,319.191z"/>
			<path style="fill:#E86B8F;" d="M435.35,320.069c-1.063-5.757-0.85-11.786,0.424-17.583c0.612-2.909,1.559-5.745,2.692-8.502
				c1.162-2.748,2.59-5.383,4.218-7.89c1.669-2.48,3.542-4.821,5.614-6.967c2.097-2.119,4.336-4.101,6.776-5.8
				c4.839-3.438,10.307-5.987,16.023-7.253c-5.35,2.354-10.306,5.342-14.724,8.958c-2.189,1.829-4.29,3.755-6.18,5.876
				c-1.915,2.094-3.675,4.327-5.22,6.701c-1.585,2.347-2.948,4.842-4.134,7.42c-1.213,2.569-2.169,5.254-2.997,7.985
				C436.238,308.494,435.424,314.224,435.35,320.069z"/>
		</g>
		<g>
			<path style="fill:#F4D96E;" d="M371.589,400.929c3.177,5.108,11.499,7.171,17.623,4.66c12.454-5.108,9.7-21.292-2.975-24.549
				C372.667,377.552,366.108,392.117,371.589,400.929z"/>
			<path style="fill:#FFFFFF;" d="M440.892,367.328c-2.153-2.482-5.053-4.11-8.037-5.1c-2.995-1.01-6.151-1.399-9.252-1.367
				c-5.155,0.094-10.118,1.198-14.965,2.491c-0.135-3.285-0.448-6.571-1.104-9.826c-0.585-3.005-1.396-5.987-2.567-8.863
				c-1.169-2.87-2.738-5.637-4.85-8.027c-2.109-2.382-4.803-4.348-7.925-5.378c-3.117-1.063-6.547-0.986-9.651-0.137
				c-3.127,0.843-5.961,2.442-8.429,4.408c-2.47,1.975-4.609,4.324-6.367,6.925c-1.607,2.381-2.892,5.022-3.813,7.705
				c-2.146-0.926-4.36-1.718-6.65-2.305c-3.003-0.768-6.159-1.154-9.336-0.88c-3.169,0.277-6.352,1.272-9.039,3.168
				c-2.709,1.872-4.689,4.675-5.854,7.674c-1.183,3.015-1.585,6.244-1.474,9.397c0.117,3.16,0.731,6.278,1.775,9.238
				c1.042,2.949,2.544,5.79,4.344,8.279c0.808,1.206,1.684,2.358,2.598,3.476c-0.729,0.488-1.45,0.99-2.156,1.517
				c-2.466,1.815-4.813,3.824-6.912,6.113c-2.094,2.285-3.923,4.887-5.179,7.818c-1.25,2.925-1.874,6.201-1.469,9.464
				c0.373,3.272,1.911,6.34,4.006,8.781c2.1,2.465,4.758,4.342,7.591,5.731c2.842,1.387,5.881,2.316,8.984,2.791
				c3.092,0.472,6.306,0.487,9.349,0.074c2.038-0.203,4.044-0.574,6.028-1.025c0.054,0.901,0.12,1.802,0.209,2.703
				c0.298,3.015,0.905,6.017,1.877,8.921c1.009,2.901,2.445,5.676,4.378,8.118c0.956,1.226,2.029,2.375,3.245,3.381
				c1.191,1.032,2.541,1.904,4.008,2.564c2.887,1.401,6.401,1.735,9.544,0.817c3.165-0.883,5.877-2.808,8.049-5.081
				c2.194-2.274,3.897-4.961,5.196-7.777c1.247-2.764,2.149-5.617,2.867-8.502c0.458,0.288,0.915,0.578,1.38,0.856
				c2.6,1.555,5.374,2.854,8.286,3.801c2.932,0.916,6.017,1.413,9.129,1.314c1.554-0.039,3.116-0.217,4.648-0.595
				c1.538-0.343,3.043-0.909,4.445-1.695c2.844-1.486,5.204-4.111,6.337-7.183c1.174-3.069,1.241-6.394,0.707-9.492
				c-0.522-3.117-1.667-6.084-3.157-8.803c-2.331-4.174-5.349-7.793-8.507-11.219c2.069-0.983,4.092-2.066,6.065-3.25
				c2.597-1.56,5.051-3.393,7.259-5.515c2.191-2.153,4.083-4.639,5.463-7.431c0.699-1.389,1.278-2.85,1.667-4.379
				c0.423-1.518,0.633-3.112,0.602-4.719C444.267,373.095,443.066,369.776,440.892,367.328z M370.043,344.014
				c3.228-4.723,7.843-8.696,13.221-10.278c2.669-0.767,5.521-0.871,8.14-0.02c2.624,0.823,4.995,2.474,6.893,4.559
				c1.916,2.091,3.382,4.618,4.553,7.281c1.168,2.671,2.022,5.503,2.66,8.387c0.63,2.888,1.056,5.831,1.33,8.792
				c0.032,0.359,0.054,0.72,0.081,1.079c-0.423,0.116-0.847,0.232-1.269,0.35l-15.394,4.381c-2.931-2.616-5.927-5.161-9.031-7.59
				c-4.648-3.585-9.474-7.084-14.856-9.673C367.284,348.669,368.497,346.257,370.043,344.014z M381.369,419.735
				c-6.501-5.13-13.266-9.927-19.769-15.009c0.193-8.614-0.003-17.239,0.336-25.812c8.603-3.634,17.535-6.53,26.563-8.989
				c0.446-0.122,0.894-0.235,1.34-0.354c5.935,5.048,11.544,10.502,16.913,16.164c-0.575,7.294-1.594,14.567-2.879,21.777
				c-0.123,0.693-0.257,1.385-0.386,2.078C396.079,412.917,388.799,416.534,381.369,419.735z M403.393,410.102
				c-0.945,5.048-2.006,10.078-3.078,15.103c-0.562,2.633-1.157,5.262-1.869,7.84c-4.05-2.517-7.783-5.559-11.405-8.675
				c-1.405-1.203-2.836-2.373-4.279-3.53C389.701,417.337,396.442,413.493,403.393,410.102z M361.189,414.116
				c0.179-2.537,0.285-5.077,0.359-7.619c6.506,4.471,13.17,8.678,19.455,13.397c-0.409,0.176-0.816,0.359-1.226,0.531
				c-5.526,2.315-11.127,4.424-16.861,5.88c-0.674,0.156-1.349,0.308-2.024,0.455C360.672,422.557,360.881,418.319,361.189,414.116z
				 M361.199,404.407c-0.906-0.711-1.812-1.422-2.705-2.147c-4.647-3.781-9.149-7.726-13.137-12.095
				c-0.543-0.62-1.08-1.245-1.61-1.874c0.991-0.648,1.995-1.279,3.016-1.883c2.566-1.503,5.239-2.877,7.915-4.214
				c1.85-0.901,3.727-1.747,5.613-2.569C360.465,387.911,361.134,396.161,361.199,404.407z M365.694,353.237
				c2.473,1.146,4.884,2.446,7.228,3.868c2.535,1.554,5.007,3.263,7.449,4.992c2.973,2.153,5.852,4.434,8.666,6.797l-0.765,0.218
				c-8.848,2.532-17.673,5.228-26.287,8.539c0.276-5.862,0.768-11.703,1.883-17.39C364.384,357.889,364.949,355.529,365.694,353.237
				z M404.707,407.654c1.148-6.955,2.196-13.941,2.941-20.964c3.948,4.198,7.776,8.514,11.592,12.837
				c0.725,0.822,1.444,1.649,2.158,2.481c-2.826,1.352-5.74,2.539-8.66,3.669c-2.79,1.087-5.544,2.257-8.279,3.473L404.707,407.654z
				 M407.261,371.693c0.046,4.31-0.112,8.621-0.424,12.925c-5.116-5.26-10.326-10.445-15.787-15.367
				c4.966-1.306,9.964-2.5,14.964-3.681c0.337-0.08,0.675-0.156,1.012-0.235C407.151,367.448,407.216,369.573,407.261,371.693z
				 M339.909,383.232c-1.699-2.413-2.995-4.965-3.932-7.699c-1.875-5.405-2.321-11.478-0.391-16.741
				c0.972-2.601,2.586-4.955,4.829-6.553c2.223-1.619,4.96-2.542,7.766-2.826c2.82-0.295,5.724,0.031,8.561,0.675
				c2.21,0.506,4.384,1.227,6.511,2.087c-0.8,2.504-1.381,5.063-1.852,7.63c-1.057,6.041-1.231,12.145-1.149,18.186
				c0.001,0.114,0.007,0.227,0.008,0.341c-2.074,0.82-4.139,1.666-6.185,2.568c-3.922,1.764-7.846,3.637-11.562,5.895
				C341.591,385.643,340.712,384.462,339.909,383.232z M354.233,427.84c-2.929,0.36-5.791,0.3-8.644-0.164
				c-5.65-0.896-11.216-3.366-14.947-7.551c-1.836-2.083-3.15-4.617-3.502-7.349c-0.38-2.724,0.098-5.573,1.17-8.181
				c1.07-2.626,2.727-5.033,4.632-7.231c1.914-2.199,4.108-4.183,6.442-5.993c0.725-0.559,1.467-1.098,2.217-1.627
				c0.63,0.721,1.269,1.433,1.921,2.131c4.226,4.445,9.027,8.217,13.931,11.747c1.238,0.893,2.487,1.77,3.742,2.635
				c-0.011,2.612-0.079,5.224-0.267,7.838c-0.243,3.001-0.438,6.009-0.493,9.024c-0.036,1.244-0.031,2.49-0.002,3.736
				C358.377,427.29,356.313,427.658,354.233,427.84z M395.086,442.186c-1.27,2.623-2.925,5.026-4.904,7.094
				c-1.982,2.052-4.379,3.695-7.018,4.493c-1.318,0.404-2.695,0.539-4.059,0.445c-1.37-0.057-2.731-0.411-4.02-0.956
				c-1.299-0.527-2.525-1.268-3.664-2.138c-1.154-0.852-2.205-1.86-3.159-2.956c-1.928-2.183-3.449-4.744-4.557-7.473
				c-1.083-2.752-1.833-5.655-2.281-8.61c-0.143-0.909-0.249-1.822-0.34-2.736c0.829-0.195,1.655-0.401,2.476-0.621
				c5.913-1.63,11.503-4.085,16.928-6.745c0.66-0.322,1.311-0.659,1.966-0.989c1.497,1.156,2.978,2.335,4.417,3.571
				c2.267,1.982,4.568,3.928,6.958,5.767c1.446,1.137,2.941,2.212,4.474,3.236C397.457,436.549,396.439,439.451,395.086,442.186z
				 M429.774,413.836c1.352,2.582,2.298,5.342,2.782,8.163c0.469,2.814,0.363,5.719-0.566,8.314c-0.46,1.3-1.171,2.486-2.057,3.527
				c-0.861,1.067-1.955,1.95-3.161,2.661c-1.197,0.73-2.522,1.275-3.898,1.672c-1.371,0.42-2.806,0.665-4.256,0.779
				c-2.902,0.251-5.865-0.052-8.718-0.785c-2.856-0.767-5.636-1.892-8.277-3.291c-0.529-0.277-1.048-0.571-1.566-0.867
				c0.679-2.835,1.194-5.696,1.682-8.531l2.641-15.865c2.77-1.328,5.577-2.578,8.449-3.693c2.816-1.064,5.618-2.176,8.367-3.416
				c0.151-0.066,0.299-0.139,0.45-0.206C424.741,405.928,427.644,409.685,429.774,413.836z M441.806,380.591
				c-0.276,1.407-0.737,2.788-1.32,4.12c-1.148,2.677-2.812,5.147-4.803,7.317c-2.024,2.157-4.327,4.077-6.806,5.746
				c-1.915,1.305-3.926,2.455-5.994,3.504c-0.854-0.921-1.715-1.831-2.576-2.733l-12.537-12.972
				c0.466-4.606,0.794-9.228,0.918-13.872c0.044-2.24,0.063-4.493,0.008-6.75c4.955-1.113,9.94-2.01,14.904-1.924
				c2.915,0.025,5.795,0.493,8.51,1.396c2.703,0.913,5.214,2.376,7.065,4.42c0.929,1.018,1.64,2.205,2.139,3.477
				c0.534,1.263,0.798,2.644,0.856,4.043C442.25,377.764,442.105,379.189,441.806,380.591z"/>
			<path style="fill:#75CBC1;" d="M370.622,340.475c1.589,2.554,5.75,3.586,8.811,2.33c6.227-2.554,4.85-10.646-1.487-12.275
				C371.161,328.786,367.881,336.069,370.622,340.475z"/>
			<path style="fill:#75CBC1;" d="M420.164,367.713c1.589,2.554,5.749,3.586,8.811,2.33c6.227-2.554,4.85-10.646-1.487-12.275
				C420.703,356.024,417.423,363.307,420.164,367.713z"/>
			<path style="fill:#75CBC1;" d="M360.045,447.037c1.589,2.554,5.749,3.586,8.811,2.33c6.227-2.554,4.85-10.646-1.487-12.275
				C360.584,435.348,357.304,442.631,360.045,447.037z"/>
			<path style="fill:#75CBC1;" d="M328.359,372.152c1.589,2.554,5.749,3.586,8.811,2.33c6.227-2.554,4.85-10.646-1.488-12.275
				C328.898,360.463,325.619,367.746,328.359,372.152z"/>
		</g>
		<g>
			<path style="fill:#75CBC1;" d="M352.626,84.252c0.095-0.632-0.381-1.207-1.02-1.232l-7.651-0.306l0,0l-42.115-1.682l0,0
				l-16.279-0.65c-0.868-0.035-1.416,0.923-0.947,1.654l7.428,11.565l0,0l1.414,62.786c0.026,1.167,0.98,2.1,2.148,2.1h47.511
				c1.144,0,2.087-0.897,2.146-2.039l3.373-66.335l2.376-0.317c0.474-0.063,0.85-0.433,0.92-0.906L352.626,84.252z"/>
			<path style="fill:#F4D96E;" d="M341.366,127.321c0.053-1.043-0.65-1.982-1.668-2.211c-4.833-1.091-10.008-0.674-14.477,1.482
				c-3.09,1.49-6.21,3.773-9.583,3.149c-3.194-0.591-5.293-3.57-7.951-5.437c-2.151-1.511-4.789-2.286-7.414-2.247
				c-1.213,0.018-2.194,0.991-2.166,2.203l0.65,28.855h41.298L341.366,127.321z"/>
			<g>
				<g>
					<path style="fill:none;stroke:#9C9C9C;stroke-width:1.0742;stroke-miterlimit:10;" d="M289.062,86.445"/>
				</g>
			</g>
			<path style="fill:#FFFFFF;" d="M337.573,97.446c-1.02-0.107-2.035-0.354-3.062-0.274c-1.027,0.071-2.055,0.205-3.094,0.612
				l-0.006,0.161c1.006,0.482,2.022,0.691,3.041,0.837c1.018,0.156,2.049-0.016,3.074-0.048c2.049-0.076,4.098-0.166,6.15-0.337
				c-0.427,3.539-0.775,7.084-1.107,10.63c-1.922-0.296-3.848-0.527-5.773-0.741c-1.02-0.108-2.035-0.354-3.062-0.274
				c-1.027,0.071-2.055,0.205-3.094,0.612l-0.006,0.161c1.006,0.482,2.022,0.691,3.041,0.837c1.018,0.156,2.048-0.016,3.074-0.048
				c1.932-0.072,3.864-0.161,5.798-0.314c-0.08,0.859-0.166,1.717-0.244,2.576c-0.244,2.668-0.454,5.338-0.661,8.009
				c-1.872-0.285-3.747-0.511-5.622-0.72c-1.02-0.108-2.035-0.354-3.062-0.274c-1.027,0.071-2.055,0.205-3.094,0.612l-0.006,0.161
				c1.006,0.482,2.022,0.691,3.041,0.837c1.018,0.156,2.048-0.016,3.074-0.048c1.882-0.07,3.765-0.158,5.649-0.304
				c-0.136,1.756-0.27,3.512-0.414,5.267c-0.11,1.77-0.228,3.539-0.345,5.308c-1.872-0.285-3.746-0.511-5.62-0.72
				c-1.02-0.107-2.035-0.354-3.062-0.274c-1.026,0.071-2.055,0.205-3.094,0.612l-0.006,0.161c1.006,0.482,2.022,0.692,3.041,0.838
				c1.018,0.156,2.048-0.016,3.074-0.048c1.882-0.07,3.765-0.158,5.651-0.304c-0.175,2.661-0.346,5.323-0.486,7.986l-0.129,2.609
				c-1.92-0.295-3.842-0.526-5.764-0.74c-1.02-0.107-2.035-0.354-3.062-0.274c-1.026,0.071-2.055,0.205-3.094,0.612l-0.006,0.161
				c1.006,0.482,2.022,0.691,3.041,0.838c1.018,0.156,2.048-0.016,3.074-0.048c1.932-0.072,3.865-0.161,5.8-0.314l-0.195,3.942
				c-0.072,2.238-0.179,4.473-0.22,6.713c-2.036-0.323-4.075-0.562-6.114-0.789c-1.02-0.108-2.035-0.354-3.062-0.274
				c-1.026,0.071-2.055,0.205-3.094,0.612l-0.006,0.161c1.006,0.482,2.022,0.692,3.041,0.838c1.018,0.156,2.049-0.016,3.074-0.048
				c2.051-0.077,4.102-0.166,6.156-0.338l0.003-0.08c0.283-2.25,0.497-4.504,0.748-6.756l0.635-6.764
				c0.409-4.511,0.728-9.027,1.094-13.541c0.279-4.52,0.61-9.036,0.846-13.558c0.238-4.523,0.458-9.047,0.56-13.579l0.003-0.081
				C341.651,97.913,339.612,97.674,337.573,97.446z"/>
			<path style="fill:#F4D96E;" d="M304.925,110.908c-3.456,0-3.462,5.371,0,5.371C308.381,116.279,308.386,110.908,304.925,110.908z
				"/>
			<path style="fill:#F4D96E;" d="M321.72,118.275c-3.456,0-3.462,5.371,0,5.371C325.176,123.646,325.181,118.275,321.72,118.275z"
				/>
			<path style="fill:#F4D96E;" d="M321.572,102.658c-3.456,0-3.462,5.371,0,5.371C325.028,108.029,325.034,102.658,321.572,102.658z
				"/>
			<path style="fill:#F4D96E;" d="M304.63,89.399c-3.456,0-3.462,5.371,0,5.371C308.086,94.77,308.092,89.399,304.63,89.399z"/>
			<path style="fill:#F4D96E;" d="M330.854,87.926c-3.456,0-3.462,5.371,0,5.371C334.31,93.297,334.316,87.926,330.854,87.926z"/>
		</g>
		<g>
			<path style="fill:#FFFFFF;" d="M94.492,91.613l-2.45-13.284l-2.353-13.299c-0.772-4.435-1.71-8.844-2.257-13.314
				c-0.558-4.468-1.04-8.948-1.195-13.478l0.193-0.03c1.22,4.366,2.114,8.782,2.932,13.21c0.829,4.426,1.267,8.913,1.871,13.374
				l1.774,13.389l1.678,13.404L94.492,91.613z"/>
			<path style="fill:#FFFFFF;" d="M109.715,152.36c-4.678,0.999-9.389,1.673-14.107,2.267c-4.717,0.607-9.473,0.819-14.212,1.199
				l-14.221,1.101l-14.231,1.004l-0.019-0.194l14.154-1.782l14.164-1.684c4.723-0.549,9.429-1.265,14.174-1.587
				c4.744-0.334,9.495-0.589,14.278-0.518L109.715,152.36z"/>
			<path style="fill:#FFFFFF;" d="M94.576,91.694l-13.764-1.328L67.06,88.942c-4.582-0.488-9.186-0.808-13.74-1.522
				c-4.556-0.702-9.101-1.481-13.606-2.587l0.024-0.194c4.639,0.037,9.236,0.402,13.825,0.843c4.59,0.43,9.13,1.253,13.691,1.909
				l13.679,2.006L94.6,91.501L94.576,91.694z"/>
			<path style="fill:#FFFFFF;" d="M94.683,91.574l4.158,15.072l4.063,15.096c1.342,5.035,2.848,10.029,3.969,15.119
				c1.133,5.087,2.188,10.193,2.927,15.379l-0.189,0.047c-1.781-4.925-3.245-9.93-4.632-14.954
				c-1.399-5.021-2.412-10.138-3.59-15.214l-3.495-15.237l-3.4-15.261L94.683,91.574z"/>
			<path style="fill:#FFFFFF;" d="M31.083,25.19l2.571,14.826l2.475,14.84c0.812,4.949,1.792,9.873,2.378,14.855
				c0.599,4.98,1.119,9.972,1.315,15.011l-0.193,0.028c-1.26-4.883-2.197-9.813-3.054-14.755c-0.87-4.94-1.347-9.938-1.992-14.911
				l-1.895-14.925l-1.799-14.94L31.083,25.19z"/>
			<path style="fill:#FFFFFF;" d="M94.555,91.506l14.573-5.733l14.607-5.642c4.873-1.869,9.689-3.896,14.64-5.55
				c4.947-1.666,9.922-3.257,15.008-4.541l0.067,0.183c-4.718,2.294-9.549,4.28-14.406,6.192c-4.853,1.924-9.843,3.474-14.774,5.183
				l-14.808,5.091l-14.841,5L94.555,91.506z"/>
			<path style="fill:#75CBC1;" d="M90.598,112.902c9.329,2.271,20.55-4.534,24.1-14.083c7.219-19.421-14.599-34.64-31.823-24.405
				C64.435,85.371,74.502,108.984,90.598,112.902z"/>
			<path style="fill:#FFFFFF;" d="M87.358,79.566c1.683-1.198,3.67-1.987,5.742-2.381c2.079-0.361,4.254-0.305,6.35,0.221
				c2.078,0.53,4.171,1.403,5.742,2.938c1.562,1.504,2.767,3.418,3.168,5.517l-0.176,0.084c-1.36-1.59-2.723-2.966-4.262-4.118
				c-1.531-1.123-3.083-2.281-4.92-2.924c-1.82-0.648-3.806-0.9-5.779-0.748c-1.979,0.118-3.947,0.665-5.763,1.579L87.358,79.566z"
				/>
			<path style="fill:#6EC1EA;" d="M81.839,44.151c6.277,1.528,13.827-3.05,16.215-9.476c4.857-13.067-9.823-23.307-21.412-16.421
				C64.235,25.627,71.008,41.515,81.839,44.151z"/>
			<path style="fill:#FFFFFF;" d="M79.659,21.722c1.132-0.806,2.469-1.337,3.863-1.602c1.399-0.243,2.863-0.205,4.272,0.148
				c1.398,0.357,2.807,0.944,3.863,1.977c1.051,1.012,1.862,2.3,2.132,3.712l-0.118,0.057c-0.915-1.07-1.832-1.996-2.868-2.771
				c-1.03-0.756-2.074-1.535-3.31-1.968c-1.224-0.436-2.561-0.606-3.888-0.503c-1.332,0.08-2.656,0.448-3.878,1.062L79.659,21.722z"
				/>
			<path style="fill:#6EC1EA;" d="M37.229,97.797c6.277,1.528,13.827-3.05,16.215-9.476c4.857-13.067-9.823-23.307-21.412-16.421
				C19.625,79.273,26.399,95.161,37.229,97.797z"/>
			<path style="fill:#FFFFFF;" d="M35.049,75.367c1.132-0.806,2.469-1.337,3.863-1.602c1.399-0.243,2.862-0.206,4.272,0.148
				c1.398,0.356,2.806,0.944,3.863,1.977c1.051,1.012,1.862,2.3,2.132,3.712l-0.118,0.057c-0.915-1.07-1.832-1.995-2.868-2.771
				c-1.03-0.755-2.074-1.535-3.31-1.967c-1.224-0.436-2.561-0.606-3.888-0.504c-1.332,0.08-2.656,0.448-3.878,1.062L35.049,75.367z"
				/>
			<path style="fill:#F4D96E;" d="M50.382,166.184c4.01,0.976,8.833-1.949,10.359-6.054c3.103-8.348-6.275-14.89-13.679-10.49
				C39.136,154.35,43.464,164.499,50.382,166.184z"/>
			<path style="fill:#FFFFFF;" d="M48.99,151.854c0.728-0.505,1.576-0.854,2.468-1.023c0.893-0.155,1.829-0.131,2.729,0.095
				c0.893,0.228,1.793,0.603,2.468,1.263c0.672,0.646,1.189,1.47,1.362,2.371l-0.076,0.036c-0.584-0.684-1.171-1.275-1.832-1.77
				c-0.658-0.482-1.325-0.98-2.115-1.257c-0.782-0.279-1.636-0.387-2.484-0.322c-0.85,0.051-1.702,0.276-2.477,0.679L48.99,151.854z
				"/>
			<path style="fill:#F4D96E;" d="M29.271,34.362c4.01,0.976,8.833-1.949,10.359-6.053c3.103-8.348-6.275-14.89-13.679-10.49
				C18.025,22.528,22.352,32.678,29.271,34.362z"/>
			<path style="fill:#FFFFFF;" d="M27.878,20.032c0.728-0.505,1.576-0.854,2.468-1.023c0.893-0.155,1.829-0.131,2.729,0.095
				c0.893,0.228,1.793,0.603,2.468,1.263c0.672,0.647,1.189,1.47,1.362,2.371l-0.076,0.036c-0.584-0.684-1.171-1.275-1.832-1.77
				c-0.658-0.483-1.325-0.98-2.115-1.257c-0.782-0.278-1.636-0.387-2.484-0.322c-0.85,0.051-1.702,0.276-2.477,0.679L27.878,20.032z
				"/>
			<path style="fill:#6EC1EA;" d="M107.021,166.598c6.277,1.528,13.827-3.05,16.215-9.476c4.857-13.067-9.823-23.307-21.412-16.421
				C89.417,148.074,96.191,163.962,107.021,166.598z"/>
			<path style="fill:#FFFFFF;" d="M104.841,144.168c1.132-0.806,2.469-1.337,3.863-1.602c1.399-0.243,2.862-0.206,4.272,0.148
				c1.398,0.357,2.807,0.944,3.863,1.977c1.051,1.012,1.862,2.3,2.132,3.712l-0.119,0.057c-0.915-1.07-1.832-1.996-2.868-2.771
				c-1.03-0.755-2.074-1.535-3.31-1.967c-1.224-0.436-2.561-0.605-3.888-0.503c-1.332,0.08-2.656,0.448-3.878,1.062L104.841,144.168
				z"/>
			<path style="fill:#6EC1EA;" d="M151.728,83.434c6.277,1.528,13.827-3.05,16.215-9.476c4.857-13.067-9.823-23.307-21.412-16.421
				C134.124,64.91,140.898,80.798,151.728,83.434z"/>
			<path style="fill:#FFFFFF;" d="M149.548,61.004c1.132-0.806,2.469-1.337,3.863-1.602c1.399-0.243,2.863-0.205,4.272,0.148
				c1.398,0.357,2.807,0.944,3.863,1.977c1.051,1.012,1.862,2.3,2.132,3.712l-0.119,0.057c-0.915-1.07-1.832-1.996-2.868-2.771
				c-1.03-0.755-2.074-1.535-3.31-1.968c-1.224-0.436-2.561-0.605-3.888-0.503c-1.332,0.08-2.656,0.448-3.878,1.062L149.548,61.004z
				"/>
		</g>
		<g>
			<path style="fill:#FFFFFF;" d="M582.411,434.909l6.923-8.173l6.98-8.121c2.334-2.7,4.569-5.49,7.038-8.069
				c2.462-2.586,4.969-5.13,7.672-7.5l0.115,0.103c-2.066,2.941-4.328,5.707-6.635,8.431c-2.3,2.731-4.834,5.252-7.268,7.862
				l-7.326,7.811l-7.384,7.759L582.411,434.909z"/>
			<path style="fill:#FFFFFF;" d="M552.773,474.751c-2.962-2.369-5.74-4.922-8.474-7.519c-2.741-2.59-5.258-5.402-7.871-8.12
				l-7.816-8.175l-7.761-8.229l0.11-0.109l8.2,7.792l8.145,7.847c2.708,2.623,5.51,5.151,8.09,7.901
				c2.587,2.743,5.129,5.531,7.487,8.503L552.773,474.751z"/>
			<path style="fill:#FFFFFF;" d="M582.403,435.002l-6.095-9.114l-6.03-9.155c-2.001-3.057-4.116-6.043-5.964-9.196
				c-1.856-3.148-3.661-6.329-5.243-9.649l0.131-0.082c2.306,2.866,4.391,5.87,6.423,8.908c2.041,3.032,3.815,6.232,5.702,9.361
				l5.637,9.402l5.571,9.443L582.403,435.002z"/>
			<path style="fill:#FFFFFF;" d="M582.531,435.007l-7.162,10.119l-7.224,10.073c-2.416,3.352-4.725,6.783-7.286,10.026
				c-2.553,3.249-5.157,6.461-7.969,9.517l-0.124-0.093c2.128-3.566,4.465-6.977,6.852-10.35c2.379-3.379,5.01-6.57,7.534-9.841
				l7.596-9.795l7.658-9.749L582.531,435.007z"/>
			<path style="fill:#FFFFFF;" d="M591.34,362.647l-7.808,9.022l-7.865,8.97c-2.629,2.983-5.16,6.056-7.922,8.917
				c-2.755,2.868-5.558,5.693-8.552,8.344l-0.114-0.104c2.364-3.225,4.919-6.275,7.522-9.283c2.595-3.014,5.422-5.816,8.151-8.709
				l8.208-8.656l8.265-8.604L591.34,362.647z"/>
			<path style="fill:#FFFFFF;" d="M582.508,434.894l10.835,6.065l10.796,6.132c3.594,2.053,7.255,3.99,10.756,6.198
				c3.506,2.2,6.98,4.454,10.322,6.931l-0.079,0.133c-3.777-1.744-7.421-3.711-11.033-5.732c-3.617-2.013-7.074-4.296-10.599-6.465
				l-10.559-6.531l-10.52-6.598L582.508,434.894z"/>
			<path style="fill:#F28D3B;" d="M567.391,443.208c3.29,6.866,13.1,10.336,20.743,7.72c15.543-5.32,13.929-26.351-1-31.783
				C571.151,413.33,561.714,431.363,567.391,443.208z"/>
			<path style="fill:#FFFFFF;" d="M586.223,424.484c1.58,0.431,3.062,1.255,4.344,2.328c1.265,1.094,2.323,2.458,3.053,4.008
				c0.718,1.541,1.233,3.264,1.08,4.999c-0.139,1.714-0.709,3.414-1.795,4.714l-0.14-0.066c0.293-1.633,0.453-3.16,0.387-4.683
				c-0.079-1.503-0.148-3.037-0.675-4.488c-0.516-1.442-1.359-2.788-2.442-3.922c-1.067-1.155-2.39-2.088-3.863-2.744
				L586.223,424.484z"/>
			<path style="fill:#F4D96E;" d="M605.186,403.315c2.214,4.619,8.814,6.954,13.956,5.194c10.458-3.579,9.372-17.73-0.673-21.385
				C607.716,383.212,601.366,395.346,605.186,403.315z"/>
			<path style="fill:#FFFFFF;" d="M617.857,390.717c1.063,0.29,2.06,0.844,2.922,1.567c0.851,0.736,1.563,1.654,2.054,2.697
				c0.483,1.037,0.83,2.197,0.727,3.363c-0.093,1.153-0.477,2.297-1.208,3.172l-0.094-0.044c0.197-1.099,0.305-2.126,0.261-3.151
				c-0.054-1.011-0.099-2.043-0.455-3.019c-0.347-0.97-0.914-1.876-1.643-2.639c-0.718-0.777-1.608-1.405-2.599-1.846
				L617.857,390.717z"/>
			<path style="fill:#F4D96E;" d="M549.866,402.872c2.214,4.619,8.814,6.954,13.956,5.194c10.458-3.579,9.372-17.73-0.673-21.385
				C552.396,382.768,546.047,394.902,549.866,402.872z"/>
			<path style="fill:#FFFFFF;" d="M562.537,390.273c1.063,0.29,2.06,0.844,2.922,1.567c0.851,0.736,1.563,1.654,2.054,2.696
				c0.483,1.037,0.829,2.197,0.727,3.363c-0.093,1.153-0.477,2.297-1.208,3.172l-0.094-0.044c0.197-1.099,0.305-2.126,0.26-3.151
				c-0.053-1.011-0.099-2.043-0.455-3.019c-0.347-0.97-0.914-1.876-1.643-2.639c-0.718-0.777-1.608-1.405-2.599-1.846
				L562.537,390.273z"/>
			<path style="fill:#E86B8F;" d="M514.501,445.278c1.414,2.951,5.631,4.443,8.916,3.318c6.681-2.287,5.987-11.327-0.43-13.661
				C516.117,432.435,512.061,440.187,514.501,445.278z"/>
			<path style="fill:#FFFFFF;" d="M522.596,437.23c0.676,0.193,1.315,0.538,1.867,1.001c0.544,0.47,0.999,1.056,1.312,1.723
				c0.309,0.662,0.53,1.403,0.464,2.149c-0.06,0.737-0.305,1.468-0.772,2.026l-0.06-0.028c0.126-0.702,0.195-1.358,0.167-2.013
				c-0.034-0.646-0.063-1.305-0.29-1.929c-0.222-0.62-0.584-1.198-1.05-1.686c-0.458-0.496-1.024-0.906-1.66-1.18L522.596,437.23z"
				/>
			<path style="fill:#E86B8F;" d="M584.801,366.139c1.414,2.951,5.631,4.443,8.916,3.318c6.681-2.287,5.987-11.327-0.43-13.662
				C586.418,353.296,582.361,361.048,584.801,366.139z"/>
			<path style="fill:#FFFFFF;" d="M592.896,358.091c0.676,0.193,1.315,0.538,1.867,1.001c0.544,0.47,0.999,1.056,1.312,1.723
				c0.309,0.662,0.53,1.403,0.464,2.149c-0.06,0.737-0.305,1.468-0.772,2.026l-0.06-0.028c0.126-0.702,0.195-1.358,0.167-2.013
				c-0.034-0.646-0.064-1.305-0.29-1.929c-0.222-0.62-0.584-1.198-1.05-1.686c-0.458-0.496-1.024-0.906-1.66-1.18L592.896,358.091z"
				/>
			<path style="fill:#F4D96E;" d="M542.683,480.246c2.214,4.619,8.814,6.954,13.956,5.194c10.458-3.579,9.372-17.73-0.673-21.385
				C545.213,460.142,538.863,472.276,542.683,480.246z"/>
			<path style="fill:#FFFFFF;" d="M555.354,467.647c1.063,0.29,2.06,0.844,2.923,1.567c0.851,0.736,1.563,1.654,2.054,2.696
				c0.483,1.037,0.829,2.197,0.727,3.363c-0.093,1.153-0.477,2.297-1.208,3.172l-0.094-0.044c0.197-1.099,0.305-2.126,0.26-3.151
				c-0.053-1.011-0.099-2.043-0.454-3.02c-0.347-0.97-0.914-1.875-1.643-2.639c-0.718-0.777-1.608-1.405-2.599-1.846
				L555.354,467.647z"/>
			<path style="fill:#F4D96E;" d="M616.167,465.929c2.214,4.619,8.814,6.954,13.956,5.194c10.458-3.579,9.372-17.73-0.673-21.385
				C618.697,445.825,612.347,457.959,616.167,465.929z"/>
			<path style="fill:#FFFFFF;" d="M628.838,453.33c1.063,0.29,2.06,0.844,2.922,1.567c0.851,0.736,1.563,1.654,2.054,2.696
				c0.483,1.037,0.829,2.197,0.727,3.363c-0.093,1.153-0.477,2.297-1.208,3.172l-0.094-0.044c0.197-1.099,0.305-2.126,0.26-3.151
				c-0.053-1.011-0.099-2.043-0.454-3.02c-0.347-0.97-0.914-1.876-1.643-2.639c-0.718-0.777-1.608-1.405-2.599-1.846L628.838,453.33
				z"/>
		</g>
		<g>
			<path style="fill:#FFFFFF;" d="M643.01,87.939l-12.867,4.113l-12.894,4.019c-4.302,1.327-8.556,2.817-12.921,3.925
				c-4.361,1.119-8.744,2.165-13.218,2.893l-0.054-0.188c4.176-1.763,8.443-3.21,12.732-4.582c4.285-1.383,8.681-2.385,13.029-3.55
				l13.056-3.456l13.083-3.362L643.01,87.939z"/>
			<path style="fill:#FFFFFF;" d="M701.34,65.143c1.584,4.514,2.849,9.101,4.036,13.706c1.199,4.602,2.012,9.293,2.989,13.945
				l2.894,13.967l2.799,13.989l-0.19,0.043l-3.56-13.815l-3.465-13.837c-1.142-4.615-2.45-9.192-3.37-13.858
				c-0.932-4.663-1.787-9.344-2.323-14.098L701.34,65.143z"/>
			<path style="fill:#FFFFFF;" d="M643.081,87.845l0.426,13.821l0.328,13.822c0.097,4.607,0.362,9.214,0.231,13.822
				c-0.12,4.608-0.316,9.216-0.843,13.825l-0.195,0.001c-0.551-4.606-0.771-9.213-0.914-13.82c-0.155-4.607,0.087-9.215,0.16-13.823
				l0.257-13.823l0.355-13.823L643.081,87.845z"/>
			<path style="fill:#FFFFFF;" d="M642.948,87.754l14.424-6.034l14.459-5.943c4.825-1.969,9.588-4.095,14.495-5.852
				c4.903-1.768,9.834-3.462,14.884-4.851l0.071,0.182c-4.66,2.391-9.439,4.477-14.247,6.489c-4.803,2.023-9.75,3.677-14.637,5.488
				l-14.672,5.397l-14.707,5.306L642.948,87.754z"/>
			<path style="fill:#FFFFFF;" d="M585.154,159.25l14.381-4.429l14.407-4.335c4.806-1.432,9.566-3.028,14.434-4.241
				c4.864-1.225,9.749-2.373,14.723-3.206l0.053,0.188c-4.684,1.869-9.456,3.422-14.25,4.899c-4.79,1.489-9.687,2.595-14.539,3.865
				l-14.565,3.77l-14.592,3.676L585.154,159.25z"/>
			<path style="fill:#FFFFFF;" d="M642.896,87.89l-7.533-13.73l-7.447-13.775c-2.471-4.598-5.092-9.117-7.36-13.819
				c-2.279-4.696-4.488-9.429-6.405-14.312l0.173-0.09c2.873,4.39,5.455,8.929,7.967,13.506c2.523,4.571,4.693,9.323,7.013,13.999
				l6.926,14.043L643.07,87.8L642.896,87.89z"/>
			<path style="fill:#6EC1EA;" d="M664.622,89.104c1.071-9.542-7.1-19.811-17.023-22.122c-20.179-4.701-32.512,18.869-20.178,34.658
				C640.626,118.544,662.774,105.567,664.622,89.104z"/>
			<path style="fill:#FFFFFF;" d="M631.964,96.54c-1.402-1.518-2.435-3.388-3.089-5.394c-0.622-2.016-0.842-4.181-0.586-6.327
				c0.263-2.128,0.864-4.315,2.187-6.068c1.294-1.74,3.04-3.178,5.071-3.841l0.106,0.164c-1.405,1.55-2.597,3.077-3.545,4.749
				c-0.92,1.66-1.872,3.347-2.278,5.251c-0.412,1.887-0.411,3.889-0.01,5.827c0.368,1.949,1.16,3.831,2.296,5.517L631.964,96.54z"/>
			<path style="fill:#75CBC1;" d="M597.534,106.501c0.721-6.42-4.777-13.329-11.453-14.885
				c-13.577-3.163-21.875,12.696-13.576,23.319C581.389,126.31,596.29,117.578,597.534,106.501z"/>
			<path style="fill:#FFFFFF;" d="M575.561,111.505c-0.943-1.021-1.639-2.28-2.078-3.629c-0.418-1.356-0.566-2.813-0.394-4.257
				c0.177-1.432,0.581-2.903,1.471-4.083c0.871-1.171,2.046-2.138,3.412-2.585l0.071,0.11c-0.945,1.043-1.747,2.07-2.385,3.196
				c-0.619,1.117-1.26,2.252-1.532,3.533c-0.277,1.27-0.276,2.617-0.007,3.921c0.248,1.311,0.781,2.578,1.545,3.712L575.561,111.505
				z"/>
			<path style="fill:#75CBC1;" d="M656.398,143.957c0.72-6.42-4.777-13.329-11.453-14.885
				c-13.577-3.163-21.875,12.696-13.576,23.319C640.253,163.765,655.155,155.034,656.398,143.957z"/>
			<path style="fill:#FFFFFF;" d="M634.425,148.96c-0.943-1.021-1.639-2.28-2.078-3.629c-0.418-1.356-0.566-2.813-0.394-4.257
				c0.177-1.432,0.581-2.904,1.471-4.083c0.871-1.171,2.046-2.138,3.412-2.585l0.071,0.111c-0.945,1.043-1.747,2.07-2.385,3.196
				c-0.619,1.117-1.26,2.252-1.532,3.533c-0.277,1.27-0.276,2.617-0.007,3.921c0.248,1.311,0.781,2.578,1.545,3.712L634.425,148.96z
				"/>
			<path style="fill:#E86B8F;" d="M722.567,122.247c0.46-4.102-3.052-8.515-7.317-9.509c-8.674-2.021-13.975,8.111-8.673,14.897
				C712.253,134.902,721.773,129.324,722.567,122.247z"/>
			<path style="fill:#FFFFFF;" d="M708.53,125.443c-0.593-0.659-1.047-1.455-1.328-2.318c-0.267-0.867-0.362-1.797-0.252-2.719
				c0.113-0.915,0.371-1.855,0.94-2.608c0.556-0.748,1.307-1.366,2.18-1.651l0.046,0.071c-0.604,0.666-1.116,1.323-1.524,2.042
				c-0.395,0.714-0.805,1.438-0.979,2.257c-0.177,0.811-0.176,1.672-0.004,2.505c0.158,0.836,0.489,1.653,0.987,2.371
				L708.53,125.443z"/>
			<path style="fill:#E86B8F;" d="M594.481,159.886c0.46-4.102-3.052-8.515-7.317-9.509c-8.674-2.021-13.975,8.111-8.673,14.897
				C584.167,172.54,593.687,166.962,594.481,159.886z"/>
			<path style="fill:#FFFFFF;" d="M580.444,163.082c-0.593-0.658-1.047-1.455-1.328-2.318c-0.267-0.867-0.362-1.797-0.252-2.719
				c0.113-0.915,0.371-1.855,0.94-2.608c0.556-0.748,1.307-1.366,2.18-1.651l0.045,0.07c-0.604,0.666-1.116,1.323-1.524,2.042
				c-0.395,0.714-0.805,1.438-0.979,2.257c-0.177,0.811-0.177,1.672-0.005,2.505c0.158,0.836,0.489,1.653,0.987,2.371
				L580.444,163.082z"/>
			<path style="fill:#75CBC1;" d="M715.804,66.012c0.721-6.42-4.777-13.329-11.453-14.885
				c-13.577-3.163-21.875,12.696-13.576,23.319C699.659,85.821,714.561,77.089,715.804,66.012z"/>
			<path style="fill:#FFFFFF;" d="M693.831,71.016c-0.943-1.021-1.639-2.28-2.078-3.629c-0.418-1.357-0.566-2.813-0.394-4.257
				c0.177-1.432,0.581-2.903,1.471-4.083c0.871-1.171,2.046-2.138,3.412-2.585l0.071,0.111c-0.945,1.043-1.747,2.07-2.385,3.196
				c-0.619,1.117-1.26,2.252-1.532,3.533c-0.277,1.27-0.276,2.617-0.007,3.921c0.248,1.311,0.78,2.578,1.545,3.712L693.831,71.016z"
				/>
			<path style="fill:#75CBC1;" d="M627.647,32.199c0.721-6.42-4.777-13.329-11.453-14.885
				c-13.577-3.163-21.875,12.696-13.576,23.319C611.502,52.007,626.404,43.276,627.647,32.199z"/>
			<path style="fill:#FFFFFF;" d="M605.674,37.202c-0.943-1.021-1.639-2.28-2.078-3.629c-0.418-1.357-0.566-2.813-0.394-4.257
				c0.177-1.432,0.581-2.903,1.471-4.083c0.871-1.171,2.046-2.138,3.412-2.585l0.071,0.111c-0.945,1.043-1.747,2.07-2.385,3.196
				c-0.619,1.117-1.26,2.252-1.532,3.533c-0.277,1.27-0.276,2.617-0.007,3.921c0.248,1.311,0.78,2.578,1.545,3.712L605.674,37.202z"
				/>
		</g>
		<g>
			<g>
				<polygon style="fill:#F28D3B;" points="68.234,285.87 66.867,304.606 64.838,304.606 63.404,285.87 				"/>
				<polygon style="fill:#F28D3B;" points="102.036,308.523 84.615,315.552 83.721,313.731 99.908,304.187 				"/>
				<polygon style="fill:#F28D3B;" points="95.723,349.232 81.727,336.701 82.967,335.095 98.674,345.409 				"/>
				<polygon style="fill:#F28D3B;" points="53.885,360.994 59.974,343.222 61.935,343.738 58.556,362.223 				"/>
				<polygon style="fill:#F28D3B;" points="26.776,323.242 45.558,323.627 45.664,325.652 27.029,328.066 				"/>
				<polygon style="fill:#F28D3B;" points="85.397,294.978 76.98,307.14 75.605,306.329 82.121,293.047 				"/>
				<polygon style="fill:#F28D3B;" points="100.431,327.288 85.722,325.735 85.774,324.138 100.554,323.487 				"/>
				<polygon style="fill:#F28D3B;" points="77.889,356.586 72.952,342.643 74.415,342.002 81.372,355.059 				"/>
				<polygon style="fill:#F28D3B;" points="38.65,344.806 50.584,336.068 51.618,337.285 41.114,347.702 				"/>
				<polygon style="fill:#F28D3B;" points="41.562,300.414 52.096,310.797 51.06,312.012 39.097,303.309 				"/>
			</g>
			<path style="fill:#75CBC1;" d="M46.632,336.886c5.447,8.756,19.714,12.294,30.212,7.989c21.351-8.757,16.63-36.502-5.1-42.087
				C48.48,296.808,37.234,321.779,46.632,336.886z"/>
			<g>
				<path style="fill:#F4D96E;" d="M51.675,317.838c-0.64,3.452,0.651,7.396,3.766,9.197c2.557,1.478,5.822,1.293,8.66,0.414
					c2.473-0.767,4.839-2.071,6.41-4.07c2.754-3.503,2.381-8.951-0.827-12.073C63.04,304.839,53.131,309.99,51.675,317.838z"/>
				<path style="fill:#F4D96E;" d="M72.84,326.308c-0.387,2.086,0.393,4.469,2.275,5.556c1.545,0.893,3.518,0.781,5.232,0.25
					c1.494-0.463,2.924-1.251,3.873-2.459c1.664-2.116,1.438-5.408-0.5-7.294C79.706,318.455,73.72,321.567,72.84,326.308z"/>
				<path style="fill:#F4D96E;" d="M61.454,334.249c-0.272,1.469,0.277,3.146,1.602,3.913c1.088,0.629,2.477,0.55,3.684,0.176
					c1.052-0.326,2.059-0.881,2.727-1.731c1.172-1.49,1.013-3.808-0.352-5.136C66.289,328.719,62.073,330.91,61.454,334.249z"/>
			</g>
			<g>
				<path style="fill:#75CBC1;" d="M55.615,282.339c-0.569,2.546,0.578,5.454,3.344,6.782c2.271,1.09,5.171,0.954,7.692,0.305
					c2.196-0.565,4.298-1.527,5.693-3.001c2.446-2.583,2.114-6.6-0.734-8.902C65.709,272.754,56.908,276.552,55.615,282.339z"/>
				<path style="fill:#75CBC1;" d="M80.223,289.225c-1.031,1.022-1.367,2.729-0.469,4.182c0.737,1.193,2.136,1.999,3.512,2.452
					c1.199,0.395,2.472,0.575,3.568,0.303c1.922-0.476,2.972-2.458,2.329-4.391C87.83,287.766,82.566,286.902,80.223,289.225z"/>
				<path style="fill:#75CBC1;" d="M99.645,295.639c-2.536,0.611-4.641,2.922-4.614,5.991c0.022,2.519,1.423,5.062,3.116,7.039
					c1.475,1.723,3.265,3.185,5.203,3.788c3.397,1.057,6.857-1.01,7.668-4.582C112.697,300.476,105.41,294.25,99.645,295.639z"/>
				<path style="fill:#75CBC1;" d="M106.229,341.401c-1.668-2.006-4.67-2.875-7.412-1.497c-2.251,1.132-3.915,3.51-4.942,5.902
					c-0.895,2.084-1.418,4.335-1.104,6.34c0.55,3.515,3.932,5.707,7.495,4.859C107.648,355.248,110.02,345.961,106.229,341.401z"/>
				<path style="fill:#75CBC1;" d="M65.19,367.62c1.198-2.317,0.829-5.421-1.509-7.409c-1.919-1.632-4.758-2.238-7.361-2.252
					c-2.268-0.012-4.545,0.383-6.269,1.453c-3.023,1.876-3.724,5.845-1.555,8.796C52.99,374.321,62.467,372.887,65.19,367.62z"/>
				<path style="fill:#75CBC1;" d="M23.91,336.029c2.572,0.435,5.416-0.863,6.597-3.695c0.97-2.325,0.682-5.214-0.098-7.697
					c-0.68-2.164-1.75-4.212-3.295-5.529c-2.708-2.307-6.702-1.766-8.852,1.199C13.81,326.45,18.063,335.04,23.91,336.029z"/>
				<path style="fill:#75CBC1;" d="M102.997,319.988c-1.391-0.414-3.05,0.109-3.894,1.594c-0.693,1.219-0.73,2.834-0.467,4.258
					c0.229,1.241,0.681,2.445,1.445,3.277c1.339,1.458,3.582,1.43,4.97-0.063C107.926,325.963,106.159,320.93,102.997,319.988z"/>
				<path style="fill:#75CBC1;" d="M85.582,355.755c-0.226-1.434-1.413-2.705-3.116-2.827c-1.398-0.1-2.872,0.563-4.044,1.413
					c-1.021,0.741-1.913,1.668-2.334,2.716c-0.739,1.837,0.254,3.848,2.198,4.458C82.315,362.779,86.095,359.015,85.582,355.755z"/>
				<path style="fill:#75CBC1;" d="M41.657,351.935c1.309-0.628,2.185-2.131,1.812-3.798c-0.306-1.368-1.364-2.589-2.516-3.467
					c-1.004-0.765-2.148-1.352-3.273-1.455c-1.972-0.179-3.613,1.35-3.638,3.388C33.991,350.825,38.682,353.363,41.657,351.935z"/>
				<path style="fill:#75CBC1;" d="M35.005,304.522c0.829,1.191,2.453,1.816,4.039,1.181c1.302-0.521,2.337-1.761,3.02-3.038
					c0.595-1.113,0.992-2.337,0.912-3.463c-0.138-1.975-1.91-3.351-3.926-3.049C34.875,296.777,33.12,301.814,35.005,304.522z"/>
			</g>
			<g>
				<path style="fill:#FFFFFF;" d="M67.451,278.463c-1.986,0-1.989,3.086,0,3.086C69.437,281.549,69.44,278.463,67.451,278.463z"/>
				<path style="fill:#FFFFFF;" d="M106.614,305.177c-1.985,0-1.989,3.086,0,3.086C108.6,308.263,108.603,305.177,106.614,305.177z"
					/>
				<path style="fill:#FFFFFF;" d="M98.833,351.602c-1.985,0-1.989,3.086,0,3.086C100.819,354.688,100.822,351.602,98.833,351.602z"
					/>
				<path style="fill:#FFFFFF;" d="M53.446,365.348c-1.986,0-1.989,3.086,0,3.086C55.431,368.434,55.435,365.348,53.446,365.348z"/>
				<path style="fill:#FFFFFF;" d="M22.064,320.998c-1.986,0-1.989,3.086,0,3.086C24.049,324.083,24.052,320.998,22.064,320.998z"/>
				<path style="fill:#FFFFFF;" d="M39.017,297.714c-1.191,0-1.193,1.852,0,1.852C40.208,299.566,40.21,297.714,39.017,297.714z"/>
				<path style="fill:#FFFFFF;" d="M86.889,291.157c-1.191,0-1.193,1.852,0,1.852C88.08,293.008,88.082,291.157,86.889,291.157z"/>
				<path style="fill:#FFFFFF;" d="M102.814,325.852c-1.191,0-1.193,1.852,0,1.852C104.006,327.704,104.008,325.852,102.814,325.852
					z"/>
				<path style="fill:#FFFFFF;" d="M78.926,358.083c-1.191,0-1.193,1.852,0,1.852C80.117,359.935,80.119,358.083,78.926,358.083z"/>
				<path style="fill:#FFFFFF;" d="M36.836,345.38c-1.191,0-1.193,1.851,0,1.851C38.028,347.232,38.029,345.38,36.836,345.38z"/>
			</g>
		</g>
		<g>
			<g>
				<polygon style="fill:#E86B8F;" points="640.604,189.282 656.871,203.61 655.456,205.474 637.234,193.722 				"/>
				<polygon style="fill:#E86B8F;" points="685.007,174.017 679.314,194.933 677.017,194.484 679.536,172.948 				"/>
				<polygon style="fill:#E86B8F;" points="718.019,208.219 696.738,212.341 696.127,210.081 716.565,202.839 				"/>
				<polygon style="fill:#E86B8F;" points="699.643,254.88 687.556,236.885 689.399,235.442 704.031,251.443 				"/>
				<polygon style="fill:#E86B8F;" points="646.032,253.459 659.489,236.465 661.424,237.78 650.642,256.592 				"/>
				<polygon style="fill:#E86B8F;" points="660.95,179.861 666.256,196.082 664.551,196.781 656.889,181.525 				"/>
				<polygon style="fill:#E86B8F;" points="701.134,188.583 689.445,201.019 688.014,199.858 697.726,185.818 				"/>
				<polygon style="fill:#E86B8F;" points="712.337,229.741 696.078,224.552 696.509,222.761 713.363,225.474 				"/>
				<polygon style="fill:#E86B8F;" points="674.136,257.589 674.43,240.525 676.27,240.423 678.517,257.345 				"/>
				<polygon style="fill:#E86B8F;" points="635.365,223.944 652.257,221.505 652.652,223.305 636.306,228.23 				"/>
			</g>
			<path style="fill:#F28D3B;" d="M672.424,244.728c11.848,1.102,25.053-9.543,28.419-22.196
				c6.846-25.733-21.949-40.749-42.241-24.673C636.877,215.07,651.983,242.826,672.424,244.728z"/>
			<g>
				<path style="fill:#F4D96E;" d="M658.435,226.804c2.726,2.997,7.252,4.562,11.081,2.955c3.143-1.319,5.251-4.449,6.422-7.671
					c1.021-2.808,1.472-5.893,0.731-8.731c-1.299-4.975-6.566-8.433-11.674-7.663C654.416,207.29,652.238,219.991,658.435,226.804z"
					/>
				<path style="fill:#F4D96E;" d="M680.986,213.259c1.647,1.811,4.382,2.756,6.694,1.785c1.899-0.797,3.172-2.688,3.88-4.635
					c0.617-1.696,0.889-3.56,0.442-5.275c-0.785-3.006-3.967-5.095-7.053-4.629C678.558,201.47,677.241,209.143,680.986,213.259z"/>
				<path style="fill:#F4D96E;" d="M680.341,229.264c1.16,1.275,3.085,1.941,4.714,1.257c1.337-0.561,2.234-1.893,2.732-3.263
					c0.434-1.195,0.626-2.507,0.311-3.714c-0.552-2.117-2.793-3.587-4.966-3.26C678.631,220.963,677.704,226.366,680.341,229.264z"
					/>
			</g>
			<g>
				<path style="fill:#F28D3B;" d="M628.555,198.418c1.943,2.299,5.416,3.274,8.567,1.657c2.587-1.327,4.484-4.088,5.646-6.857
					c1.013-2.413,1.595-5.016,1.214-7.326c-0.668-4.05-4.591-6.548-8.695-5.536C626.787,182.453,624.138,193.192,628.555,198.418z"
					/>
				<path style="fill:#F28D3B;" d="M652.052,180.604c0.22,1.66,1.555,3.16,3.516,3.348c1.61,0.155,3.328-0.569,4.704-1.517
					c1.199-0.827,2.253-1.871,2.768-3.068c0.903-2.098-0.185-4.447-2.412-5.204C656.017,172.594,651.552,176.829,652.052,180.604z"
					/>
				<path style="fill:#F28D3B;" d="M671.497,167.226c-1.208,2.757-0.552,6.304,2.287,8.42c2.331,1.737,5.645,2.224,8.643,2.047
					c2.612-0.154,5.205-0.779,7.112-2.139c3.341-2.384,3.855-7.007,1.138-10.244C685.048,158.604,674.241,160.959,671.497,167.226z"
					/>
				<path style="fill:#F28D3B;" d="M718.151,193.099c-3.007,0.133-5.901,2.287-6.547,5.768c-0.53,2.859,0.495,6.047,1.977,8.659
					c1.291,2.276,2.996,4.327,5.058,5.438c3.614,1.946,7.989,0.367,9.695-3.5C731.868,201.455,724.987,192.797,718.151,193.099z"/>
				<path style="fill:#F28D3B;" d="M713.62,249.111c-1.294-2.717-4.405-4.544-7.863-3.782c-2.839,0.625-5.377,2.812-7.205,5.195
					c-1.593,2.076-2.818,4.445-3.038,6.777c-0.385,4.087,2.774,7.501,7,7.566C711.268,264.999,716.562,255.288,713.62,249.111z"/>
				<path style="fill:#F28D3B;" d="M655.786,265.014c2.194-2.061,2.986-5.58,1.206-8.641c-1.461-2.514-4.317-4.264-7.143-5.279
					c-2.463-0.885-5.093-1.33-7.38-0.828c-4.01,0.879-6.299,4.928-5.073,8.973C639.936,267.615,650.798,269.698,655.786,265.014z"/>
				<path style="fill:#F28D3B;" d="M696.214,181.132c-1.351,0.99-2.027,2.88-1.252,4.691c0.637,1.487,2.095,2.648,3.588,3.4
					c1.3,0.656,2.723,1.08,4.02,0.958c2.274-0.214,3.813-2.295,3.41-4.612C705.145,180.769,699.287,178.883,696.214,181.132z"/>
				<path style="fill:#E86B8F;" d="M716.941,222.091c-1.475-0.793-3.472-0.588-4.773,0.892c-1.068,1.215-1.486,3.032-1.522,4.703
					c-0.031,1.456,0.199,2.922,0.868,4.04c1.173,1.96,3.714,2.452,5.631,1.09C721.117,229.993,720.295,223.894,716.941,222.091z"/>
				<path style="fill:#F28D3B;" d="M682.786,259.799c0.335-1.641-0.435-3.495-2.227-4.315c-1.471-0.673-3.331-0.552-4.942-0.106
					c-1.403,0.389-2.742,1.031-3.62,1.993c-1.54,1.687-1.28,4.262,0.576,5.707C676.418,266.071,682.024,263.529,682.786,259.799z"/>
				<path style="fill:#F28D3B;" d="M634.567,232.837c1.674,0.069,3.38-0.988,3.903-2.888c0.429-1.56,0.012-3.377-0.686-4.895
					c-0.608-1.323-1.456-2.541-2.547-3.255c-1.912-1.25-4.412-0.582-5.541,1.481C627.358,227.553,630.763,232.68,634.567,232.837z"
					/>
			</g>
			<g>
				<path style="fill:#FFFFFF;" d="M633.25,184.835c-1.385,1.825,1.449,3.981,2.836,2.153
					C637.472,185.162,634.638,183.007,633.25,184.835z"/>
				<path style="fill:#FFFFFF;" d="M685.125,167.475c-1.385,1.825,1.449,3.981,2.836,2.153
					C689.346,167.803,686.512,165.647,685.125,167.475z"/>
				<path style="fill:#FFFFFF;" d="M722.368,207.014c-1.385,1.825,1.449,3.981,2.836,2.153
					C726.589,207.341,723.755,205.186,722.368,207.014z"/>
				<path style="fill:#FFFFFF;" d="M703.339,258.32c-1.385,1.825,1.449,3.981,2.836,2.153
					C707.56,258.648,704.726,256.492,703.339,258.32z"/>
				<path style="fill:#FFFFFF;" d="M640.682,256.225c-1.385,1.825,1.449,3.981,2.836,2.153
					C644.903,256.553,642.069,254.397,640.682,256.225z"/>
				<path style="fill:#FFFFFF;" d="M631.108,224.4c-0.831,1.095,0.869,2.388,1.702,1.292
					C633.641,224.596,631.94,223.303,631.108,224.4z"/>
				<path style="fill:#FFFFFF;" d="M658.478,175.824c-0.831,1.095,0.869,2.388,1.702,1.292
					C661.01,176.021,659.31,174.728,658.478,175.824z"/>
				<path style="fill:#FFFFFF;" d="M701.478,185.391c-0.831,1.095,0.869,2.388,1.702,1.292
					C704.01,185.587,702.31,184.294,701.478,185.391z"/>
				<path style="fill:#FFFFFF;" d="M714.437,229.833c-0.831,1.095,0.869,2.388,1.702,1.292
					C716.969,230.029,715.269,228.736,714.437,229.833z"/>
				<path style="fill:#FFFFFF;" d="M673.399,259.657c-0.831,1.095,0.869,2.388,1.702,1.292
					C675.931,259.853,674.231,258.56,673.399,259.657z"/>
			</g>
		</g>
		<g>
			<path style="fill:#E86B8F;" d="M18.191,230.195c0.525,35.513,40.787,41.684,58.8,22.33c6.511-6.996,8.763-18.079,7.04-28.648
				l51.061-12.231c0.9-0.216,1.474-1.098,1.306-2.008l-2.131-11.566c-0.188-1.019-1.219-1.65-2.212-1.352l-51.737,15.518
				c-1.044-2.1-2.27-4.092-3.689-5.92C55.693,179.346,17.7,197.024,18.191,230.195z"/>
			<path style="fill:#F4D96E;" d="M70.943,246.946c8.017-8.614,7.628-25.299-0.277-35.482
				c-16.077-20.711-45.252-7.136-44.875,18.336C26.194,257.069,57.111,261.808,70.943,246.946z"/>
			<path style="fill:#FFFFFF;" d="M46.932,207.262c-2.253,1.178-4.294,2.401-6.152,3.874c-1.828,1.473-3.701,2.947-5.168,4.854
				c-1.469,1.887-2.625,4.041-3.414,6.34c-0.829,2.291-1.261,4.733-1.414,7.213l-0.218,0.003c-0.195-2.497,0.008-5.042,0.588-7.523
				c0.613-2.471,1.632-4.865,3.037-7.039c1.403-2.155,3.094-4.254,5.344-5.632c2.217-1.379,4.764-2.285,7.345-2.301L46.932,207.262z
				"/>
			<polygon style="fill:#F28D3B;" points="116.197,216.172 110.439,203.203 88.536,209.772 92.379,221.877 			"/>
		</g>
		<g>
			<path style="fill:#6EC1EA;" d="M429.321,62.185c16.322-31.544-16.242-56.012-41.264-47.47
				c-9.045,3.088-16.268,11.791-19.744,21.919l-50.779-13.355c-0.895-0.235-1.818,0.271-2.1,1.152l-3.589,11.2
				c-0.316,0.987,0.295,2.03,1.31,2.237l52.928,10.778c-0.072,2.344,0.066,4.679,0.453,6.96
				C372.239,89.271,414.076,91.648,429.321,62.185z"/>
			<path style="fill:#F4D96E;" d="M390.749,22.49c-11.137,3.802-18.679,18.69-16.526,31.401c4.379,25.85,36.505,27.676,48.212,5.051
				C434.969,34.719,409.964,15.93,390.749,22.49z"/>
			<path style="fill:#FFFFFF;" d="M393.153,68.81c2.542,0.026,4.919-0.086,7.252-0.507c2.307-0.434,4.655-0.848,6.849-1.835
				c2.187-0.969,4.223-2.321,6.005-3.974c1.813-1.628,3.349-3.575,4.655-5.688l0.193,0.1c-1.009,2.293-2.391,4.439-4.074,6.352
				c-1.708,1.888-3.737,3.516-6.003,4.768c-2.255,1.236-4.737,2.287-7.371,2.438c-2.605,0.167-5.279-0.238-7.561-1.444
				L393.153,68.81z"/>
			<polygon style="fill:#E86B8F;" points="336.324,28.221 335.269,42.372 357.676,46.935 360.011,34.451 			"/>
		</g>
	</g>
</g>
</svg>
